<mxfile host="app.diagrams.net" agent="Mozilla/5.0 (Macintosh; Intel Mac OS X 10_15_7) AppleWebKit/537.36 (KHTML, like Gecko) Chrome/130.0.0.0 Safari/537.36" version="24.8.6" pages="11">
  <diagram name="Starting Point" id="WNb0kZ4UoQccOkuQoSE6">
    <mxGraphModel dx="1974" dy="663" grid="1" gridSize="10" guides="1" tooltips="1" connect="1" arrows="1" fold="1" page="1" pageScale="1" pageWidth="827" pageHeight="1169" math="0" shadow="0">
      <root>
        <mxCell id="0" />
        <mxCell id="1" parent="0" />
        <mxCell id="iDAwrWaZu18-MFclZtkF-1" value="&lt;div&gt;lrm:F3 Manifestation&lt;/div&gt;Bouterwek [Edition]" style="rounded=0;whiteSpace=wrap;html=1;" vertex="1" parent="1">
          <mxGeometry x="130" y="240" width="120" height="60" as="geometry" />
        </mxCell>
        <mxCell id="iDAwrWaZu18-MFclZtkF-2" value="Friedrich Bouterwek: Aesthetik. Zweiter Theil.&amp;nbsp;&lt;div&gt;2. Auflage. Göttingen 1815&lt;/div&gt;" style="text;whiteSpace=wrap;html=1;" vertex="1" parent="1">
          <mxGeometry x="80" y="310" width="250" height="40" as="geometry" />
        </mxCell>
        <mxCell id="iDAwrWaZu18-MFclZtkF-3" value="" style="endArrow=classic;html=1;rounded=0;exitX=0.5;exitY=0;exitDx=0;exitDy=0;entryX=0.5;entryY=1;entryDx=0;entryDy=0;" edge="1" parent="1" source="iDAwrWaZu18-MFclZtkF-1" target="iDAwrWaZu18-MFclZtkF-5">
          <mxGeometry width="50" height="50" relative="1" as="geometry">
            <mxPoint x="390" y="370" as="sourcePoint" />
            <mxPoint x="190" y="140" as="targetPoint" />
          </mxGeometry>
        </mxCell>
        <mxCell id="iDAwrWaZu18-MFclZtkF-4" value="lrm: R4 embodies" style="edgeLabel;html=1;align=center;verticalAlign=middle;resizable=0;points=[];" vertex="1" connectable="0" parent="iDAwrWaZu18-MFclZtkF-3">
          <mxGeometry x="-0.0134" y="-1" relative="1" as="geometry">
            <mxPoint as="offset" />
          </mxGeometry>
        </mxCell>
        <mxCell id="iDAwrWaZu18-MFclZtkF-5" value="lrm:F2 Expression&lt;div&gt;Bouterwek [Text]&lt;/div&gt;" style="rounded=0;whiteSpace=wrap;html=1;" vertex="1" parent="1">
          <mxGeometry x="130" y="130" width="120" height="60" as="geometry" />
        </mxCell>
        <mxCell id="iDAwrWaZu18-MFclZtkF-6" value="" style="endArrow=classic;html=1;rounded=0;entryX=0.5;entryY=0;entryDx=0;entryDy=0;exitX=0.5;exitY=1;exitDx=0;exitDy=0;" edge="1" parent="1" source="iDAwrWaZu18-MFclZtkF-8" target="iDAwrWaZu18-MFclZtkF-5">
          <mxGeometry width="50" height="50" relative="1" as="geometry">
            <mxPoint x="190" y="50" as="sourcePoint" />
            <mxPoint x="440" y="320" as="targetPoint" />
          </mxGeometry>
        </mxCell>
        <mxCell id="iDAwrWaZu18-MFclZtkF-7" value="lrm: R3 is realised in" style="edgeLabel;html=1;align=center;verticalAlign=middle;resizable=0;points=[];" vertex="1" connectable="0" parent="iDAwrWaZu18-MFclZtkF-6">
          <mxGeometry x="0.0668" relative="1" as="geometry">
            <mxPoint y="-7" as="offset" />
          </mxGeometry>
        </mxCell>
        <mxCell id="iDAwrWaZu18-MFclZtkF-8" value="lrm: F1 Work&lt;div&gt;Bouterwek [Work]&lt;/div&gt;" style="rounded=0;whiteSpace=wrap;html=1;" vertex="1" parent="1">
          <mxGeometry x="130" y="20" width="120" height="60" as="geometry" />
        </mxCell>
        <mxCell id="iDAwrWaZu18-MFclZtkF-9" value="lrm: F28 Expression Creation" style="rounded=0;whiteSpace=wrap;html=1;" vertex="1" parent="1">
          <mxGeometry x="-110" y="130" width="120" height="60" as="geometry" />
        </mxCell>
        <mxCell id="iDAwrWaZu18-MFclZtkF-10" value="" style="endArrow=classic;html=1;rounded=0;exitX=1;exitY=0.5;exitDx=0;exitDy=0;entryX=0;entryY=0.5;entryDx=0;entryDy=0;" edge="1" parent="1" source="iDAwrWaZu18-MFclZtkF-9" target="iDAwrWaZu18-MFclZtkF-5">
          <mxGeometry width="50" height="50" relative="1" as="geometry">
            <mxPoint x="390" y="340" as="sourcePoint" />
            <mxPoint x="440" y="290" as="targetPoint" />
          </mxGeometry>
        </mxCell>
        <mxCell id="iDAwrWaZu18-MFclZtkF-11" value="lrm: R17 created" style="edgeLabel;html=1;align=center;verticalAlign=middle;resizable=0;points=[];" vertex="1" connectable="0" parent="iDAwrWaZu18-MFclZtkF-10">
          <mxGeometry x="0.014" relative="1" as="geometry">
            <mxPoint as="offset" />
          </mxGeometry>
        </mxCell>
        <mxCell id="iDAwrWaZu18-MFclZtkF-12" value="" style="endArrow=classic;html=1;rounded=0;exitX=0.5;exitY=1;exitDx=0;exitDy=0;entryX=0.5;entryY=0;entryDx=0;entryDy=0;" edge="1" parent="1" source="iDAwrWaZu18-MFclZtkF-9" target="iDAwrWaZu18-MFclZtkF-14">
          <mxGeometry width="50" height="50" relative="1" as="geometry">
            <mxPoint x="390" y="340" as="sourcePoint" />
            <mxPoint x="-50" y="260" as="targetPoint" />
          </mxGeometry>
        </mxCell>
        <mxCell id="iDAwrWaZu18-MFclZtkF-13" value="crm: P14 carried out by" style="edgeLabel;html=1;align=center;verticalAlign=middle;resizable=0;points=[];" vertex="1" connectable="0" parent="iDAwrWaZu18-MFclZtkF-12">
          <mxGeometry x="-0.057" y="2" relative="1" as="geometry">
            <mxPoint as="offset" />
          </mxGeometry>
        </mxCell>
        <mxCell id="iDAwrWaZu18-MFclZtkF-14" value="crm: E39 Actor&lt;div&gt;Friedrich Bouterwek&lt;/div&gt;" style="rounded=0;whiteSpace=wrap;html=1;" vertex="1" parent="1">
          <mxGeometry x="-110" y="240" width="120" height="60" as="geometry" />
        </mxCell>
        <mxCell id="iDAwrWaZu18-MFclZtkF-24" value="" style="edgeStyle=orthogonalEdgeStyle;rounded=0;orthogonalLoop=1;jettySize=auto;html=1;exitX=0.75;exitY=1;exitDx=0;exitDy=0;entryX=0.75;entryY=0;entryDx=0;entryDy=0;" edge="1" parent="1" source="iDAwrWaZu18-MFclZtkF-21" target="iDAwrWaZu18-MFclZtkF-16">
          <mxGeometry relative="1" as="geometry">
            <mxPoint x="600" y="190" as="targetPoint" />
            <Array as="points">
              <mxPoint x="504" y="190" />
              <mxPoint x="504" y="190" />
            </Array>
          </mxGeometry>
        </mxCell>
        <mxCell id="iDAwrWaZu18-MFclZtkF-25" value="crm:P71 lists" style="edgeLabel;html=1;align=center;verticalAlign=middle;resizable=0;points=[];" vertex="1" connectable="0" parent="iDAwrWaZu18-MFclZtkF-24">
          <mxGeometry x="-0.0351" y="-1" relative="1" as="geometry">
            <mxPoint y="6" as="offset" />
          </mxGeometry>
        </mxCell>
        <mxCell id="iDAwrWaZu18-MFclZtkF-16" value="crm: E55 Type&lt;div&gt;skos:Concept&lt;/div&gt;&lt;div&gt;Äsopische Fabel&lt;/div&gt;" style="rounded=0;whiteSpace=wrap;html=1;" vertex="1" parent="1">
          <mxGeometry x="414" y="210" width="120" height="60" as="geometry" />
        </mxCell>
        <UserObject label="https://genre.clscor.io/bouterwek/aesopische_fabel" link="https://genre.clscor.io/bouterwek/aesopische_fabel" id="iDAwrWaZu18-MFclZtkF-18">
          <mxCell style="text;whiteSpace=wrap;" vertex="1" parent="1">
            <mxGeometry x="550" y="220" width="300" height="40" as="geometry" />
          </mxCell>
        </UserObject>
        <mxCell id="iDAwrWaZu18-MFclZtkF-19" value="" style="endArrow=classic;html=1;rounded=0;exitX=0.5;exitY=0;exitDx=0;exitDy=0;entryX=0.5;entryY=1;entryDx=0;entryDy=0;" edge="1" parent="1">
          <mxGeometry width="50" height="50" relative="1" as="geometry">
            <mxPoint x="450" y="210" as="sourcePoint" />
            <mxPoint x="450" y="140" as="targetPoint" />
          </mxGeometry>
        </mxCell>
        <mxCell id="iDAwrWaZu18-MFclZtkF-20" value="skos:inScheme" style="edgeLabel;html=1;align=center;verticalAlign=middle;resizable=0;points=[];" vertex="1" connectable="0" parent="iDAwrWaZu18-MFclZtkF-19">
          <mxGeometry x="-0.0541" y="-2" relative="1" as="geometry">
            <mxPoint y="-17" as="offset" />
          </mxGeometry>
        </mxCell>
        <mxCell id="iDAwrWaZu18-MFclZtkF-21" value="&lt;div style=&quot;font-size: 10px;&quot;&gt;&lt;font style=&quot;font-size: 10px;&quot;&gt;crm:E32 Authority Document&lt;/font&gt;&lt;/div&gt;&lt;font style=&quot;font-size: 10px;&quot;&gt;skos:ConceptScheme&lt;/font&gt;&lt;div style=&quot;font-size: 10px;&quot;&gt;&lt;font style=&quot;font-size: 10px;&quot;&gt;Bouterwek&amp;nbsp;&lt;/font&gt;&lt;/div&gt;&lt;div style=&quot;font-size: 10px;&quot;&gt;&lt;font style=&quot;font-size: 10px;&quot;&gt;[Genre System]&lt;/font&gt;&lt;/div&gt;" style="rounded=0;whiteSpace=wrap;html=1;" vertex="1" parent="1">
          <mxGeometry x="414" y="80" width="120" height="60" as="geometry" />
        </mxCell>
        <UserObject label="https://genre.clscor.io/bouterwek/" link="https://genre.clscor.io/bouterwek/" id="iDAwrWaZu18-MFclZtkF-23">
          <mxCell style="text;whiteSpace=wrap;html=1;" vertex="1" parent="1">
            <mxGeometry x="550" y="90" width="210" height="40" as="geometry" />
          </mxCell>
        </UserObject>
      </root>
    </mxGraphModel>
  </diagram>
  <diagram name="F2 connected to Concept and Concept Scheme" id="EQDU_xOHrU33quAvkquu">
    <mxGraphModel dx="1147" dy="663" grid="1" gridSize="10" guides="1" tooltips="1" connect="1" arrows="1" fold="1" page="1" pageScale="1" pageWidth="827" pageHeight="1169" math="0" shadow="0">
      <root>
        <mxCell id="8runFeMJ8lgW21zFY085-0" />
        <mxCell id="8runFeMJ8lgW21zFY085-1" parent="8runFeMJ8lgW21zFY085-0" />
        <mxCell id="P7Y1FlIpmAQPcGcGW92u-7" value="" style="rounded=0;whiteSpace=wrap;html=1;" parent="8runFeMJ8lgW21zFY085-1" vertex="1">
          <mxGeometry x="420" y="250" width="120" height="60" as="geometry" />
        </mxCell>
        <mxCell id="8runFeMJ8lgW21zFY085-2" value="&lt;div&gt;lrm:F3 Manifestation&lt;/div&gt;Bouterwek [Edition]" style="rounded=0;whiteSpace=wrap;html=1;" parent="8runFeMJ8lgW21zFY085-1" vertex="1">
          <mxGeometry x="130" y="240" width="120" height="60" as="geometry" />
        </mxCell>
        <mxCell id="8runFeMJ8lgW21zFY085-3" value="Friedrich Bouterwek: Aesthetik. Zweiter Theil.&amp;nbsp;&lt;div&gt;2. Auflage. Göttingen 1815&lt;/div&gt;" style="text;whiteSpace=wrap;html=1;" parent="8runFeMJ8lgW21zFY085-1" vertex="1">
          <mxGeometry x="80" y="310" width="250" height="40" as="geometry" />
        </mxCell>
        <mxCell id="8runFeMJ8lgW21zFY085-4" value="" style="endArrow=classic;html=1;rounded=0;exitX=0.5;exitY=0;exitDx=0;exitDy=0;entryX=0.5;entryY=1;entryDx=0;entryDy=0;" parent="8runFeMJ8lgW21zFY085-1" source="8runFeMJ8lgW21zFY085-2" target="8runFeMJ8lgW21zFY085-6" edge="1">
          <mxGeometry width="50" height="50" relative="1" as="geometry">
            <mxPoint x="390" y="370" as="sourcePoint" />
            <mxPoint x="190" y="140" as="targetPoint" />
          </mxGeometry>
        </mxCell>
        <mxCell id="8runFeMJ8lgW21zFY085-5" value="lrm: R4 embodies" style="edgeLabel;html=1;align=center;verticalAlign=middle;resizable=0;points=[];" parent="8runFeMJ8lgW21zFY085-4" vertex="1" connectable="0">
          <mxGeometry x="-0.0134" y="-1" relative="1" as="geometry">
            <mxPoint as="offset" />
          </mxGeometry>
        </mxCell>
        <mxCell id="8runFeMJ8lgW21zFY085-6" value="lrm:F2 Expression&lt;div&gt;Bouterwek [Text]&lt;/div&gt;" style="rounded=0;whiteSpace=wrap;html=1;" parent="8runFeMJ8lgW21zFY085-1" vertex="1">
          <mxGeometry x="130" y="130" width="120" height="60" as="geometry" />
        </mxCell>
        <mxCell id="8runFeMJ8lgW21zFY085-7" value="" style="endArrow=classic;html=1;rounded=0;entryX=0.5;entryY=0;entryDx=0;entryDy=0;exitX=0.5;exitY=1;exitDx=0;exitDy=0;" parent="8runFeMJ8lgW21zFY085-1" source="8runFeMJ8lgW21zFY085-9" target="8runFeMJ8lgW21zFY085-6" edge="1">
          <mxGeometry width="50" height="50" relative="1" as="geometry">
            <mxPoint x="190" y="50" as="sourcePoint" />
            <mxPoint x="440" y="320" as="targetPoint" />
          </mxGeometry>
        </mxCell>
        <mxCell id="8runFeMJ8lgW21zFY085-8" value="lrm: R3 is realised in" style="edgeLabel;html=1;align=center;verticalAlign=middle;resizable=0;points=[];" parent="8runFeMJ8lgW21zFY085-7" vertex="1" connectable="0">
          <mxGeometry x="0.0668" relative="1" as="geometry">
            <mxPoint y="-7" as="offset" />
          </mxGeometry>
        </mxCell>
        <mxCell id="8runFeMJ8lgW21zFY085-9" value="lrm: F1 Work&lt;div&gt;Bouterwek [Work]&lt;/div&gt;" style="rounded=0;whiteSpace=wrap;html=1;" parent="8runFeMJ8lgW21zFY085-1" vertex="1">
          <mxGeometry x="130" y="20" width="120" height="60" as="geometry" />
        </mxCell>
        <mxCell id="8runFeMJ8lgW21zFY085-18" value="crm: E55 Type&lt;div&gt;skos:Concept&lt;/div&gt;&lt;div&gt;Äsopische Fabel&lt;/div&gt;" style="rounded=0;whiteSpace=wrap;html=1;" parent="8runFeMJ8lgW21zFY085-1" vertex="1">
          <mxGeometry x="680" y="130" width="120" height="60" as="geometry" />
        </mxCell>
        <UserObject label="https://genre.clscor.io/bouterwek/aesopische_fabel" link="https://genre.clscor.io/bouterwek/aesopische_fabel" id="8runFeMJ8lgW21zFY085-19">
          <mxCell style="text;whiteSpace=wrap;" parent="8runFeMJ8lgW21zFY085-1" vertex="1">
            <mxGeometry x="600" y="200" width="300" height="40" as="geometry" />
          </mxCell>
        </UserObject>
        <mxCell id="P7Y1FlIpmAQPcGcGW92u-0" value="&lt;font style=&quot;font-size: 11px;&quot;&gt;crm: E83 Type Creation&lt;/font&gt;&lt;div style=&quot;font-size: 11px;&quot;&gt;&lt;font style=&quot;font-size: 11px;&quot;&gt;Creating the skos:Concept &quot;Äsopische Fabel&quot;&lt;/font&gt;&lt;/div&gt;" style="rounded=0;whiteSpace=wrap;html=1;" parent="8runFeMJ8lgW21zFY085-1" vertex="1">
          <mxGeometry x="410" y="130" width="120" height="60" as="geometry" />
        </mxCell>
        <mxCell id="P7Y1FlIpmAQPcGcGW92u-1" value="" style="endArrow=classic;html=1;rounded=0;exitX=1;exitY=0.5;exitDx=0;exitDy=0;entryX=0;entryY=0.5;entryDx=0;entryDy=0;" parent="8runFeMJ8lgW21zFY085-1" source="P7Y1FlIpmAQPcGcGW92u-0" target="8runFeMJ8lgW21zFY085-18" edge="1">
          <mxGeometry width="50" height="50" relative="1" as="geometry">
            <mxPoint x="650" y="320" as="sourcePoint" />
            <mxPoint x="700" y="270" as="targetPoint" />
          </mxGeometry>
        </mxCell>
        <mxCell id="P7Y1FlIpmAQPcGcGW92u-3" value="crm: P135 created type" style="edgeLabel;html=1;align=center;verticalAlign=middle;resizable=0;points=[];" parent="P7Y1FlIpmAQPcGcGW92u-1" vertex="1" connectable="0">
          <mxGeometry x="0.0114" y="1" relative="1" as="geometry">
            <mxPoint as="offset" />
          </mxGeometry>
        </mxCell>
        <mxCell id="P7Y1FlIpmAQPcGcGW92u-4" value="" style="endArrow=classic;html=1;rounded=0;exitX=0.5;exitY=1;exitDx=0;exitDy=0;entryX=0.5;entryY=0;entryDx=0;entryDy=0;" parent="8runFeMJ8lgW21zFY085-1" source="P7Y1FlIpmAQPcGcGW92u-0" target="P7Y1FlIpmAQPcGcGW92u-6" edge="1">
          <mxGeometry width="50" height="50" relative="1" as="geometry">
            <mxPoint x="620" y="330" as="sourcePoint" />
            <mxPoint x="520" y="280" as="targetPoint" />
          </mxGeometry>
        </mxCell>
        <mxCell id="P7Y1FlIpmAQPcGcGW92u-5" value="crm: P14 carried out by" style="edgeLabel;html=1;align=center;verticalAlign=middle;resizable=0;points=[];" parent="P7Y1FlIpmAQPcGcGW92u-4" vertex="1" connectable="0">
          <mxGeometry x="-0.0048" y="-1" relative="1" as="geometry">
            <mxPoint as="offset" />
          </mxGeometry>
        </mxCell>
        <mxCell id="P7Y1FlIpmAQPcGcGW92u-6" value="crm: E39 Actor&lt;div&gt;Peer Trilcke and Ingo Börner&lt;/div&gt;" style="rounded=0;whiteSpace=wrap;html=1;" parent="8runFeMJ8lgW21zFY085-1" vertex="1">
          <mxGeometry x="410" y="260" width="120" height="60" as="geometry" />
        </mxCell>
        <mxCell id="P7Y1FlIpmAQPcGcGW92u-8" value="" style="endArrow=classic;html=1;rounded=0;exitX=0;exitY=0.5;exitDx=0;exitDy=0;entryX=1;entryY=0.5;entryDx=0;entryDy=0;" parent="8runFeMJ8lgW21zFY085-1" source="P7Y1FlIpmAQPcGcGW92u-0" target="8runFeMJ8lgW21zFY085-6" edge="1">
          <mxGeometry width="50" height="50" relative="1" as="geometry">
            <mxPoint x="620" y="330" as="sourcePoint" />
            <mxPoint x="670" y="280" as="targetPoint" />
          </mxGeometry>
        </mxCell>
        <mxCell id="P7Y1FlIpmAQPcGcGW92u-9" value="crm: P136 was based on" style="edgeLabel;html=1;align=center;verticalAlign=middle;resizable=0;points=[];" parent="P7Y1FlIpmAQPcGcGW92u-8" vertex="1" connectable="0">
          <mxGeometry x="0.0021" y="-2" relative="1" as="geometry">
            <mxPoint as="offset" />
          </mxGeometry>
        </mxCell>
      </root>
    </mxGraphModel>
  </diagram>
  <diagram name="F2 connected via authors concept" id="jlBDm58wLWQxar7bb747">
    <mxGraphModel dx="1147" dy="663" grid="1" gridSize="10" guides="1" tooltips="1" connect="1" arrows="1" fold="1" page="1" pageScale="1" pageWidth="827" pageHeight="1169" math="0" shadow="0">
      <root>
        <mxCell id="Ziz81FcFgpghBS2USr3m-0" />
        <mxCell id="Ziz81FcFgpghBS2USr3m-1" parent="Ziz81FcFgpghBS2USr3m-0" />
        <mxCell id="Ziz81FcFgpghBS2USr3m-2" value="" style="rounded=0;whiteSpace=wrap;html=1;" vertex="1" parent="Ziz81FcFgpghBS2USr3m-1">
          <mxGeometry x="630" y="250" width="120" height="60" as="geometry" />
        </mxCell>
        <mxCell id="Ziz81FcFgpghBS2USr3m-3" value="&lt;div&gt;lrm:F3 Manifestation&lt;/div&gt;Bouterwek [Edition]" style="rounded=0;whiteSpace=wrap;html=1;" vertex="1" parent="Ziz81FcFgpghBS2USr3m-1">
          <mxGeometry x="130" y="240" width="120" height="60" as="geometry" />
        </mxCell>
        <mxCell id="Ziz81FcFgpghBS2USr3m-4" value="Friedrich Bouterwek: Aesthetik. Zweiter Theil.&amp;nbsp;&lt;div&gt;2. Auflage. Göttingen 1815&lt;/div&gt;" style="text;whiteSpace=wrap;html=1;" vertex="1" parent="Ziz81FcFgpghBS2USr3m-1">
          <mxGeometry x="80" y="310" width="250" height="40" as="geometry" />
        </mxCell>
        <mxCell id="Ziz81FcFgpghBS2USr3m-5" value="" style="endArrow=classic;html=1;rounded=0;exitX=0.5;exitY=0;exitDx=0;exitDy=0;entryX=0.5;entryY=1;entryDx=0;entryDy=0;" edge="1" parent="Ziz81FcFgpghBS2USr3m-1" source="Ziz81FcFgpghBS2USr3m-3" target="Ziz81FcFgpghBS2USr3m-7">
          <mxGeometry width="50" height="50" relative="1" as="geometry">
            <mxPoint x="390" y="370" as="sourcePoint" />
            <mxPoint x="190" y="140" as="targetPoint" />
          </mxGeometry>
        </mxCell>
        <mxCell id="Ziz81FcFgpghBS2USr3m-6" value="lrm: R4 embodies" style="edgeLabel;html=1;align=center;verticalAlign=middle;resizable=0;points=[];" vertex="1" connectable="0" parent="Ziz81FcFgpghBS2USr3m-5">
          <mxGeometry x="-0.0134" y="-1" relative="1" as="geometry">
            <mxPoint as="offset" />
          </mxGeometry>
        </mxCell>
        <mxCell id="Ziz81FcFgpghBS2USr3m-7" value="lrm:F2 Expression&lt;div&gt;Bouterwek [Text]&lt;/div&gt;" style="rounded=0;whiteSpace=wrap;html=1;" vertex="1" parent="Ziz81FcFgpghBS2USr3m-1">
          <mxGeometry x="130" y="130" width="120" height="60" as="geometry" />
        </mxCell>
        <mxCell id="Ziz81FcFgpghBS2USr3m-8" value="" style="endArrow=classic;html=1;rounded=0;entryX=0.5;entryY=0;entryDx=0;entryDy=0;exitX=0.5;exitY=1;exitDx=0;exitDy=0;" edge="1" parent="Ziz81FcFgpghBS2USr3m-1" source="Ziz81FcFgpghBS2USr3m-10" target="Ziz81FcFgpghBS2USr3m-7">
          <mxGeometry width="50" height="50" relative="1" as="geometry">
            <mxPoint x="190" y="50" as="sourcePoint" />
            <mxPoint x="440" y="320" as="targetPoint" />
          </mxGeometry>
        </mxCell>
        <mxCell id="Ziz81FcFgpghBS2USr3m-9" value="lrm: R3 is realised in" style="edgeLabel;html=1;align=center;verticalAlign=middle;resizable=0;points=[];" vertex="1" connectable="0" parent="Ziz81FcFgpghBS2USr3m-8">
          <mxGeometry x="0.0668" relative="1" as="geometry">
            <mxPoint y="-7" as="offset" />
          </mxGeometry>
        </mxCell>
        <mxCell id="Ziz81FcFgpghBS2USr3m-10" value="lrm: F1 Work&lt;div&gt;Bouterwek [Work]&lt;/div&gt;" style="rounded=0;whiteSpace=wrap;html=1;" vertex="1" parent="Ziz81FcFgpghBS2USr3m-1">
          <mxGeometry x="130" y="20" width="120" height="60" as="geometry" />
        </mxCell>
        <mxCell id="Ziz81FcFgpghBS2USr3m-12" value="crm: E55 Type&lt;div&gt;skos:Concept&lt;/div&gt;&lt;div&gt;Äsopische Fabel&lt;/div&gt;" style="rounded=0;whiteSpace=wrap;html=1;" vertex="1" parent="Ziz81FcFgpghBS2USr3m-1">
          <mxGeometry x="880" y="130" width="120" height="60" as="geometry" />
        </mxCell>
        <UserObject label="https://genre.clscor.io/bouterwek/aesopische_fabel" link="https://genre.clscor.io/bouterwek/aesopische_fabel" id="Ziz81FcFgpghBS2USr3m-13">
          <mxCell style="text;whiteSpace=wrap;" vertex="1" parent="Ziz81FcFgpghBS2USr3m-1">
            <mxGeometry x="790" y="209" width="300" height="40" as="geometry" />
          </mxCell>
        </UserObject>
        <mxCell id="Ziz81FcFgpghBS2USr3m-14" value="&lt;font style=&quot;font-size: 11px;&quot;&gt;crm: E83 Type Creation&lt;/font&gt;&lt;div style=&quot;font-size: 11px;&quot;&gt;&lt;font style=&quot;font-size: 11px;&quot;&gt;Creating the skos:Concept &quot;Äsopische Fabel&quot;&lt;/font&gt;&lt;/div&gt;" style="rounded=0;whiteSpace=wrap;html=1;" vertex="1" parent="Ziz81FcFgpghBS2USr3m-1">
          <mxGeometry x="620" y="130" width="120" height="60" as="geometry" />
        </mxCell>
        <mxCell id="Ziz81FcFgpghBS2USr3m-15" value="" style="endArrow=classic;html=1;rounded=0;exitX=1;exitY=0.5;exitDx=0;exitDy=0;entryX=0;entryY=0.5;entryDx=0;entryDy=0;" edge="1" parent="Ziz81FcFgpghBS2USr3m-1" source="Ziz81FcFgpghBS2USr3m-14" target="Ziz81FcFgpghBS2USr3m-12">
          <mxGeometry width="50" height="50" relative="1" as="geometry">
            <mxPoint x="758" y="320" as="sourcePoint" />
            <mxPoint x="808" y="270" as="targetPoint" />
          </mxGeometry>
        </mxCell>
        <mxCell id="Ziz81FcFgpghBS2USr3m-16" value="crm: P135 created type" style="edgeLabel;html=1;align=center;verticalAlign=middle;resizable=0;points=[];" vertex="1" connectable="0" parent="Ziz81FcFgpghBS2USr3m-15">
          <mxGeometry x="0.0114" y="1" relative="1" as="geometry">
            <mxPoint as="offset" />
          </mxGeometry>
        </mxCell>
        <mxCell id="Ziz81FcFgpghBS2USr3m-17" value="" style="endArrow=classic;html=1;rounded=0;exitX=0.5;exitY=1;exitDx=0;exitDy=0;entryX=0.5;entryY=0;entryDx=0;entryDy=0;" edge="1" parent="Ziz81FcFgpghBS2USr3m-1" source="Ziz81FcFgpghBS2USr3m-14" target="Ziz81FcFgpghBS2USr3m-19">
          <mxGeometry width="50" height="50" relative="1" as="geometry">
            <mxPoint x="728" y="330" as="sourcePoint" />
            <mxPoint x="628" y="280" as="targetPoint" />
          </mxGeometry>
        </mxCell>
        <mxCell id="Ziz81FcFgpghBS2USr3m-18" value="crm: P14 carried out by" style="edgeLabel;html=1;align=center;verticalAlign=middle;resizable=0;points=[];" vertex="1" connectable="0" parent="Ziz81FcFgpghBS2USr3m-17">
          <mxGeometry x="-0.0048" y="-1" relative="1" as="geometry">
            <mxPoint x="1" y="-5" as="offset" />
          </mxGeometry>
        </mxCell>
        <mxCell id="Ziz81FcFgpghBS2USr3m-19" value="crm: E39 Actor&lt;div&gt;Peer Trilcke and Ingo Börner&lt;/div&gt;" style="rounded=0;whiteSpace=wrap;html=1;" vertex="1" parent="Ziz81FcFgpghBS2USr3m-1">
          <mxGeometry x="620" y="260" width="120" height="60" as="geometry" />
        </mxCell>
        <mxCell id="Ziz81FcFgpghBS2USr3m-20" value="" style="endArrow=classic;html=1;rounded=0;exitX=0;exitY=0.5;exitDx=0;exitDy=0;entryX=1;entryY=0.5;entryDx=0;entryDy=0;" edge="1" parent="Ziz81FcFgpghBS2USr3m-1" source="Ziz81FcFgpghBS2USr3m-14" target="IQEaZcxGSLikRrXQZUhT-0">
          <mxGeometry width="50" height="50" relative="1" as="geometry">
            <mxPoint x="728" y="330" as="sourcePoint" />
            <mxPoint x="438" y="80" as="targetPoint" />
          </mxGeometry>
        </mxCell>
        <mxCell id="Ziz81FcFgpghBS2USr3m-21" value="crm: P136 was based on" style="edgeLabel;html=1;align=center;verticalAlign=middle;resizable=0;points=[];" vertex="1" connectable="0" parent="Ziz81FcFgpghBS2USr3m-20">
          <mxGeometry x="0.0021" y="-2" relative="1" as="geometry">
            <mxPoint x="-21" y="12" as="offset" />
          </mxGeometry>
        </mxCell>
        <mxCell id="IQEaZcxGSLikRrXQZUhT-0" value="&lt;div style=&quot;font-size: 11px;&quot;&gt;&lt;font style=&quot;font-size: 11px;&quot;&gt;crm: E89 Propositional Object&lt;/font&gt;&lt;/div&gt;&lt;div style=&quot;font-size: 11px;&quot;&gt;&lt;font style=&quot;font-size: 11px;&quot;&gt;Statements about &quot;Äsopische Fabel&quot;&lt;/font&gt;&lt;/div&gt;" style="rounded=0;whiteSpace=wrap;html=1;" vertex="1" parent="Ziz81FcFgpghBS2USr3m-1">
          <mxGeometry x="380" y="70" width="120" height="60" as="geometry" />
        </mxCell>
        <mxCell id="IQEaZcxGSLikRrXQZUhT-6" value="" style="endArrow=classic;html=1;rounded=0;exitX=1;exitY=0.5;exitDx=0;exitDy=0;entryX=0;entryY=0.5;entryDx=0;entryDy=0;" edge="1" parent="Ziz81FcFgpghBS2USr3m-1" source="Ziz81FcFgpghBS2USr3m-7" target="IQEaZcxGSLikRrXQZUhT-0">
          <mxGeometry width="50" height="50" relative="1" as="geometry">
            <mxPoint x="480" y="290" as="sourcePoint" />
            <mxPoint x="530" y="240" as="targetPoint" />
          </mxGeometry>
        </mxCell>
        <mxCell id="IQEaZcxGSLikRrXQZUhT-7" value="crm: P148 has component" style="edgeLabel;html=1;align=center;verticalAlign=middle;resizable=0;points=[];" vertex="1" connectable="0" parent="IQEaZcxGSLikRrXQZUhT-6">
          <mxGeometry x="0.0224" y="-1" relative="1" as="geometry">
            <mxPoint x="13" y="10" as="offset" />
          </mxGeometry>
        </mxCell>
      </root>
    </mxGraphModel>
  </diagram>
  <diagram name="General understanding of a Genre" id="7vmuCLRDyCQVoRF5Chni">
    <mxGraphModel dx="1147" dy="1832" grid="1" gridSize="10" guides="1" tooltips="1" connect="1" arrows="1" fold="1" page="1" pageScale="1" pageWidth="827" pageHeight="1169" math="0" shadow="0">
      <root>
        <mxCell id="kQiil5YdtMPOLUKjHow7-0" />
        <mxCell id="kQiil5YdtMPOLUKjHow7-1" parent="kQiil5YdtMPOLUKjHow7-0" />
        <mxCell id="kQiil5YdtMPOLUKjHow7-2" value="" style="rounded=0;whiteSpace=wrap;html=1;" parent="kQiil5YdtMPOLUKjHow7-1" vertex="1">
          <mxGeometry x="630" y="250" width="120" height="60" as="geometry" />
        </mxCell>
        <mxCell id="kQiil5YdtMPOLUKjHow7-3" value="&lt;div&gt;lrm:F3 Manifestation&lt;/div&gt;Bouterwek [Edition]" style="rounded=0;whiteSpace=wrap;html=1;" parent="kQiil5YdtMPOLUKjHow7-1" vertex="1">
          <mxGeometry x="130" y="240" width="120" height="60" as="geometry" />
        </mxCell>
        <mxCell id="kQiil5YdtMPOLUKjHow7-4" value="Friedrich Bouterwek: Aesthetik. Zweiter Theil.&amp;nbsp;&lt;div&gt;2. Auflage. Göttingen 1815&lt;/div&gt;" style="text;whiteSpace=wrap;html=1;" parent="kQiil5YdtMPOLUKjHow7-1" vertex="1">
          <mxGeometry x="80" y="310" width="250" height="40" as="geometry" />
        </mxCell>
        <mxCell id="kQiil5YdtMPOLUKjHow7-5" value="" style="endArrow=classic;html=1;rounded=0;exitX=0.5;exitY=0;exitDx=0;exitDy=0;entryX=0.5;entryY=1;entryDx=0;entryDy=0;" parent="kQiil5YdtMPOLUKjHow7-1" source="kQiil5YdtMPOLUKjHow7-3" target="kQiil5YdtMPOLUKjHow7-7" edge="1">
          <mxGeometry width="50" height="50" relative="1" as="geometry">
            <mxPoint x="390" y="370" as="sourcePoint" />
            <mxPoint x="190" y="140" as="targetPoint" />
          </mxGeometry>
        </mxCell>
        <mxCell id="kQiil5YdtMPOLUKjHow7-6" value="lrm: R4 embodies" style="edgeLabel;html=1;align=center;verticalAlign=middle;resizable=0;points=[];" parent="kQiil5YdtMPOLUKjHow7-5" vertex="1" connectable="0">
          <mxGeometry x="-0.0134" y="-1" relative="1" as="geometry">
            <mxPoint as="offset" />
          </mxGeometry>
        </mxCell>
        <mxCell id="kQiil5YdtMPOLUKjHow7-7" value="lrm:F2 Expression&lt;div&gt;Bouterwek [Text]&lt;/div&gt;" style="rounded=0;whiteSpace=wrap;html=1;" parent="kQiil5YdtMPOLUKjHow7-1" vertex="1">
          <mxGeometry x="130" y="130" width="120" height="60" as="geometry" />
        </mxCell>
        <mxCell id="kQiil5YdtMPOLUKjHow7-8" value="" style="endArrow=classic;html=1;rounded=0;entryX=0.5;entryY=0;entryDx=0;entryDy=0;exitX=0.5;exitY=1;exitDx=0;exitDy=0;" parent="kQiil5YdtMPOLUKjHow7-1" source="kQiil5YdtMPOLUKjHow7-10" target="kQiil5YdtMPOLUKjHow7-7" edge="1">
          <mxGeometry width="50" height="50" relative="1" as="geometry">
            <mxPoint x="190" y="50" as="sourcePoint" />
            <mxPoint x="440" y="320" as="targetPoint" />
          </mxGeometry>
        </mxCell>
        <mxCell id="kQiil5YdtMPOLUKjHow7-9" value="lrm: R3 is realised in" style="edgeLabel;html=1;align=center;verticalAlign=middle;resizable=0;points=[];" parent="kQiil5YdtMPOLUKjHow7-8" vertex="1" connectable="0">
          <mxGeometry x="0.0668" relative="1" as="geometry">
            <mxPoint y="-7" as="offset" />
          </mxGeometry>
        </mxCell>
        <mxCell id="kQiil5YdtMPOLUKjHow7-10" value="lrm: F1 Work&lt;div&gt;Bouterwek [Work]&lt;/div&gt;" style="rounded=0;whiteSpace=wrap;html=1;" parent="kQiil5YdtMPOLUKjHow7-1" vertex="1">
          <mxGeometry x="130" y="20" width="120" height="60" as="geometry" />
        </mxCell>
        <mxCell id="kQiil5YdtMPOLUKjHow7-11" value="crm: E55 Type&lt;div&gt;skos:Concept&lt;/div&gt;&lt;div&gt;Äsopische Fabel&lt;/div&gt;" style="rounded=0;whiteSpace=wrap;html=1;" parent="kQiil5YdtMPOLUKjHow7-1" vertex="1">
          <mxGeometry x="880" y="130" width="120" height="60" as="geometry" />
        </mxCell>
        <UserObject label="https://genre.clscor.io/bouterwek/aesopische_fabel" link="https://genre.clscor.io/bouterwek/aesopische_fabel" id="kQiil5YdtMPOLUKjHow7-12">
          <mxCell style="text;whiteSpace=wrap;" parent="kQiil5YdtMPOLUKjHow7-1" vertex="1">
            <mxGeometry x="790" y="209" width="300" height="40" as="geometry" />
          </mxCell>
        </UserObject>
        <mxCell id="kQiil5YdtMPOLUKjHow7-13" value="&lt;font style=&quot;font-size: 11px;&quot;&gt;crm: E83 Type Creation&lt;/font&gt;&lt;div style=&quot;font-size: 11px;&quot;&gt;&lt;font style=&quot;font-size: 11px;&quot;&gt;Creating the skos:Concept &quot;Äsopische Fabel&quot;&lt;/font&gt;&lt;/div&gt;" style="rounded=0;whiteSpace=wrap;html=1;" parent="kQiil5YdtMPOLUKjHow7-1" vertex="1">
          <mxGeometry x="620" y="130" width="120" height="60" as="geometry" />
        </mxCell>
        <mxCell id="kQiil5YdtMPOLUKjHow7-14" value="" style="endArrow=classic;html=1;rounded=0;exitX=1;exitY=0.5;exitDx=0;exitDy=0;entryX=0;entryY=0.5;entryDx=0;entryDy=0;" parent="kQiil5YdtMPOLUKjHow7-1" source="kQiil5YdtMPOLUKjHow7-13" target="kQiil5YdtMPOLUKjHow7-11" edge="1">
          <mxGeometry width="50" height="50" relative="1" as="geometry">
            <mxPoint x="758" y="320" as="sourcePoint" />
            <mxPoint x="808" y="270" as="targetPoint" />
          </mxGeometry>
        </mxCell>
        <mxCell id="kQiil5YdtMPOLUKjHow7-15" value="crm: P135 created type" style="edgeLabel;html=1;align=center;verticalAlign=middle;resizable=0;points=[];" parent="kQiil5YdtMPOLUKjHow7-14" vertex="1" connectable="0">
          <mxGeometry x="0.0114" y="1" relative="1" as="geometry">
            <mxPoint as="offset" />
          </mxGeometry>
        </mxCell>
        <mxCell id="kQiil5YdtMPOLUKjHow7-16" value="" style="endArrow=classic;html=1;rounded=0;exitX=0.5;exitY=1;exitDx=0;exitDy=0;entryX=0.5;entryY=0;entryDx=0;entryDy=0;" parent="kQiil5YdtMPOLUKjHow7-1" source="kQiil5YdtMPOLUKjHow7-13" target="kQiil5YdtMPOLUKjHow7-18" edge="1">
          <mxGeometry width="50" height="50" relative="1" as="geometry">
            <mxPoint x="728" y="330" as="sourcePoint" />
            <mxPoint x="628" y="280" as="targetPoint" />
          </mxGeometry>
        </mxCell>
        <mxCell id="kQiil5YdtMPOLUKjHow7-17" value="crm: P14 carried out by" style="edgeLabel;html=1;align=center;verticalAlign=middle;resizable=0;points=[];" parent="kQiil5YdtMPOLUKjHow7-16" vertex="1" connectable="0">
          <mxGeometry x="-0.0048" y="-1" relative="1" as="geometry">
            <mxPoint x="1" y="-5" as="offset" />
          </mxGeometry>
        </mxCell>
        <mxCell id="kQiil5YdtMPOLUKjHow7-18" value="crm: E39 Actor&lt;div&gt;Peer Trilcke and Ingo Börner&lt;/div&gt;" style="rounded=0;whiteSpace=wrap;html=1;" parent="kQiil5YdtMPOLUKjHow7-1" vertex="1">
          <mxGeometry x="620" y="260" width="120" height="60" as="geometry" />
        </mxCell>
        <mxCell id="kQiil5YdtMPOLUKjHow7-19" value="" style="endArrow=classic;html=1;rounded=0;exitX=0;exitY=0.5;exitDx=0;exitDy=0;entryX=1;entryY=0.5;entryDx=0;entryDy=0;" parent="kQiil5YdtMPOLUKjHow7-1" source="kQiil5YdtMPOLUKjHow7-13" target="kQiil5YdtMPOLUKjHow7-21" edge="1">
          <mxGeometry width="50" height="50" relative="1" as="geometry">
            <mxPoint x="728" y="330" as="sourcePoint" />
            <mxPoint x="438" y="80" as="targetPoint" />
          </mxGeometry>
        </mxCell>
        <mxCell id="kQiil5YdtMPOLUKjHow7-20" value="crm: P136 was based on" style="edgeLabel;html=1;align=center;verticalAlign=middle;resizable=0;points=[];" parent="kQiil5YdtMPOLUKjHow7-19" vertex="1" connectable="0">
          <mxGeometry x="0.0021" y="-2" relative="1" as="geometry">
            <mxPoint x="-21" y="12" as="offset" />
          </mxGeometry>
        </mxCell>
        <mxCell id="kQiil5YdtMPOLUKjHow7-21" value="&lt;div style=&quot;font-size: 11px;&quot;&gt;&lt;font style=&quot;font-size: 11px;&quot;&gt;crm: E89 Propositional Object&lt;/font&gt;&lt;/div&gt;&lt;div style=&quot;font-size: 11px;&quot;&gt;&lt;font style=&quot;font-size: 11px;&quot;&gt;Statements about &quot;Äsopische Fabel&quot;&lt;/font&gt;&lt;/div&gt;" style="rounded=0;whiteSpace=wrap;html=1;" parent="kQiil5YdtMPOLUKjHow7-1" vertex="1">
          <mxGeometry x="380" y="70" width="120" height="60" as="geometry" />
        </mxCell>
        <mxCell id="kQiil5YdtMPOLUKjHow7-22" value="" style="endArrow=classic;html=1;rounded=0;exitX=1;exitY=0.5;exitDx=0;exitDy=0;entryX=0;entryY=0.5;entryDx=0;entryDy=0;" parent="kQiil5YdtMPOLUKjHow7-1" source="kQiil5YdtMPOLUKjHow7-7" target="kQiil5YdtMPOLUKjHow7-21" edge="1">
          <mxGeometry width="50" height="50" relative="1" as="geometry">
            <mxPoint x="480" y="290" as="sourcePoint" />
            <mxPoint x="530" y="240" as="targetPoint" />
          </mxGeometry>
        </mxCell>
        <mxCell id="kQiil5YdtMPOLUKjHow7-23" value="crm: P148 has component" style="edgeLabel;html=1;align=center;verticalAlign=middle;resizable=0;points=[];" parent="kQiil5YdtMPOLUKjHow7-22" vertex="1" connectable="0">
          <mxGeometry x="0.0224" y="-1" relative="1" as="geometry">
            <mxPoint x="13" y="10" as="offset" />
          </mxGeometry>
        </mxCell>
        <mxCell id="U4Gq1qgIdWyuwG6yLfuk-0" value="crm: E28 Conceptual Object&lt;div&gt;&quot;Äsopische Fabel&quot; as understood by B.&lt;/div&gt;" style="rounded=0;whiteSpace=wrap;html=1;" parent="kQiil5YdtMPOLUKjHow7-1" vertex="1">
          <mxGeometry x="380" y="-50" width="120" height="60" as="geometry" />
        </mxCell>
        <mxCell id="U4Gq1qgIdWyuwG6yLfuk-1" value="" style="endArrow=classic;html=1;rounded=0;exitX=0.5;exitY=0;exitDx=0;exitDy=0;entryX=0.5;entryY=1;entryDx=0;entryDy=0;" parent="kQiil5YdtMPOLUKjHow7-1" source="kQiil5YdtMPOLUKjHow7-21" target="U4Gq1qgIdWyuwG6yLfuk-0" edge="1">
          <mxGeometry width="50" height="50" relative="1" as="geometry">
            <mxPoint x="560" y="180" as="sourcePoint" />
            <mxPoint x="610" y="130" as="targetPoint" />
          </mxGeometry>
        </mxCell>
        <mxCell id="U4Gq1qgIdWyuwG6yLfuk-2" value="crm: P129 is about" style="edgeLabel;html=1;align=center;verticalAlign=middle;resizable=0;points=[];" parent="U4Gq1qgIdWyuwG6yLfuk-1" vertex="1" connectable="0">
          <mxGeometry x="-0.0002" y="-1" relative="1" as="geometry">
            <mxPoint as="offset" />
          </mxGeometry>
        </mxCell>
        <mxCell id="U4Gq1qgIdWyuwG6yLfuk-3" value="&lt;font style=&quot;font-size: 10px;&quot;&gt;crm:E28 Conceptual Object&lt;/font&gt;&lt;div style=&quot;font-size: 10px;&quot;&gt;&lt;font style=&quot;font-size: 10px;&quot;&gt;&quot;Äsopische Fabel&quot; [common understanding]&lt;/font&gt;&lt;/div&gt;" style="rounded=0;whiteSpace=wrap;html=1;" parent="kQiil5YdtMPOLUKjHow7-1" vertex="1">
          <mxGeometry x="380" y="-170" width="120" height="60" as="geometry" />
        </mxCell>
        <mxCell id="U4Gq1qgIdWyuwG6yLfuk-4" value="" style="endArrow=classic;html=1;rounded=0;exitX=0.5;exitY=0;exitDx=0;exitDy=0;entryX=0.5;entryY=1;entryDx=0;entryDy=0;" parent="kQiil5YdtMPOLUKjHow7-1" source="U4Gq1qgIdWyuwG6yLfuk-0" target="U4Gq1qgIdWyuwG6yLfuk-3" edge="1">
          <mxGeometry width="50" height="50" relative="1" as="geometry">
            <mxPoint x="570" y="70" as="sourcePoint" />
            <mxPoint x="620" y="20" as="targetPoint" />
          </mxGeometry>
        </mxCell>
        <mxCell id="U4Gq1qgIdWyuwG6yLfuk-5" value="crm: P130 shows features of" style="edgeLabel;html=1;align=center;verticalAlign=middle;resizable=0;points=[];" parent="U4Gq1qgIdWyuwG6yLfuk-4" vertex="1" connectable="0">
          <mxGeometry x="0.0035" relative="1" as="geometry">
            <mxPoint as="offset" />
          </mxGeometry>
        </mxCell>
        <mxCell id="U4Gq1qgIdWyuwG6yLfuk-6" value="" style="endArrow=classic;html=1;rounded=0;exitX=0.5;exitY=0;exitDx=0;exitDy=0;entryX=1;entryY=0.5;entryDx=0;entryDy=0;fillColor=#f5f5f5;strokeColor=#E6E6E6;" parent="kQiil5YdtMPOLUKjHow7-1" source="kQiil5YdtMPOLUKjHow7-11" target="U4Gq1qgIdWyuwG6yLfuk-0" edge="1">
          <mxGeometry width="50" height="50" relative="1" as="geometry">
            <mxPoint x="570" y="70" as="sourcePoint" />
            <mxPoint x="620" y="20" as="targetPoint" />
          </mxGeometry>
        </mxCell>
        <mxCell id="U4Gq1qgIdWyuwG6yLfuk-7" value="crm: P130 shows feaures of" style="edgeLabel;html=1;align=center;verticalAlign=middle;resizable=0;points=[];fontColor=#CCCCCC;" parent="U4Gq1qgIdWyuwG6yLfuk-6" vertex="1" connectable="0">
          <mxGeometry x="-0.0057" y="-1" relative="1" as="geometry">
            <mxPoint as="offset" />
          </mxGeometry>
        </mxCell>
      </root>
    </mxGraphModel>
  </diagram>
  <diagram id="J8NL1Vqc7M_Xv2UUqbYs" name="connected_concepts_with_central_node_deprecated">
    <mxGraphModel dx="1974" dy="663" grid="1" gridSize="10" guides="1" tooltips="1" connect="1" arrows="1" fold="1" page="1" pageScale="1" pageWidth="827" pageHeight="1169" math="0" shadow="0">
      <root>
        <mxCell id="0" />
        <mxCell id="1" parent="0" />
        <mxCell id="Ap-wp_gGVWFfO6KOztyA-3" value="..." style="rounded=0;whiteSpace=wrap;html=1;dashed=1;" vertex="1" parent="1">
          <mxGeometry x="-80" y="250" width="120" height="60" as="geometry" />
        </mxCell>
        <mxCell id="gsp-RMpc234YVbCF9Upx-1" value="skos:Concept&lt;div&gt;&quot;Äsopische Fabel&quot;&lt;/div&gt;&lt;div&gt;(Bouterwek&lt;span style=&quot;background-color: initial;&quot;&gt;)&lt;/span&gt;&lt;/div&gt;" style="rounded=0;whiteSpace=wrap;html=1;" vertex="1" parent="1">
          <mxGeometry x="130" y="320" width="120" height="60" as="geometry" />
        </mxCell>
        <mxCell id="gsp-RMpc234YVbCF9Upx-2" value="skos:Concept&lt;div&gt;&quot;Aesopische Fabel&quot;&lt;/div&gt;&lt;div&gt;(Eschenburg)&lt;/div&gt;" style="rounded=0;whiteSpace=wrap;html=1;" vertex="1" parent="1">
          <mxGeometry x="590" y="320" width="120" height="60" as="geometry" />
        </mxCell>
        <UserObject label="&lt;span style=&quot;color: rgb(71, 75, 79); font-family: &amp;quot;Fira Sans&amp;quot;, sans-serif; font-size: 14px; font-style: normal; font-variant-ligatures: normal; font-variant-caps: normal; font-weight: 400; letter-spacing: normal; orphans: 2; text-align: start; text-indent: 0px; text-transform: none; widows: 2; word-spacing: 0px; -webkit-text-stroke-width: 0px; white-space: normal; background-color: rgb(255, 255, 255); text-decoration-thickness: initial; text-decoration-style: initial; text-decoration-color: initial; display: inline !important; float: none;&quot;&gt;https://genre.clscor.io/eschenburg/aesopische_fabel&lt;/span&gt;" link="&lt;span style=&quot;color: rgb(71, 75, 79); font-family: &amp;quot;Fira Sans&amp;quot;, sans-serif; font-size: 14px; font-style: normal; font-variant-ligatures: normal; font-variant-caps: normal; font-weight: 400; letter-spacing: normal; orphans: 2; text-align: start; text-indent: 0px; text-transform: none; widows: 2; word-spacing: 0px; -webkit-text-stroke-width: 0px; white-space: normal; background-color: rgb(255, 255, 255); text-decoration-thickness: initial; text-decoration-style: initial; text-decoration-color: initial; display: inline !important; float: none;&quot;&gt;https://genre.clscor.io/eschenburg/aesopische_fabel&lt;/span&gt;" id="gsp-RMpc234YVbCF9Upx-3">
          <mxCell style="text;whiteSpace=wrap;html=1;" vertex="1" parent="1">
            <mxGeometry x="25" y="380" width="330" height="40" as="geometry" />
          </mxCell>
        </UserObject>
        <UserObject label="&lt;span style=&quot;color: rgb(71, 75, 79); font-family: &amp;quot;Fira Sans&amp;quot;, sans-serif; font-size: 14px; font-style: normal; font-variant-ligatures: normal; font-variant-caps: normal; font-weight: 400; letter-spacing: normal; orphans: 2; text-align: start; text-indent: 0px; text-transform: none; widows: 2; word-spacing: 0px; -webkit-text-stroke-width: 0px; white-space: normal; background-color: rgb(255, 255, 255); text-decoration-thickness: initial; text-decoration-style: initial; text-decoration-color: initial; display: inline !important; float: none;&quot;&gt;https://genre.clscor.io/bouterwek/aesopische_fabel&lt;/span&gt;" link="&lt;span style=&quot;color: rgb(71, 75, 79); font-family: &amp;quot;Fira Sans&amp;quot;, sans-serif; font-size: 14px; font-style: normal; font-variant-ligatures: normal; font-variant-caps: normal; font-weight: 400; letter-spacing: normal; orphans: 2; text-align: start; text-indent: 0px; text-transform: none; widows: 2; word-spacing: 0px; -webkit-text-stroke-width: 0px; white-space: normal; background-color: rgb(255, 255, 255); text-decoration-thickness: initial; text-decoration-style: initial; text-decoration-color: initial; display: inline !important; float: none;&quot;&gt;https://genre.clscor.io/bouterwek/aesopische_fabel&lt;/span&gt;" id="gsp-RMpc234YVbCF9Upx-4">
          <mxCell style="text;whiteSpace=wrap;html=1;" vertex="1" parent="1">
            <mxGeometry x="475" y="380" width="350" height="40" as="geometry" />
          </mxCell>
        </UserObject>
        <mxCell id="tG_bpJKttVnphXvsokyi-1" value="&lt;font style=&quot;font-size: 10px;&quot;&gt;crm:E28 Conceptual Object&lt;/font&gt;&lt;div style=&quot;font-size: 10px;&quot;&gt;&lt;font style=&quot;font-size: 10px;&quot;&gt;&quot;Äsopische Fabel&quot; [common understanding]&lt;/font&gt;&lt;/div&gt;" style="rounded=0;whiteSpace=wrap;html=1;" vertex="1" parent="1">
          <mxGeometry x="354" y="20" width="120" height="60" as="geometry" />
        </mxCell>
        <mxCell id="9TajTgmLhOl1ffe2m-NI-1" value="crm: E28 Conceptual Object&lt;div&gt;&quot;Äsopische Fabel&quot; as understood by B.&lt;/div&gt;" style="rounded=0;whiteSpace=wrap;html=1;" vertex="1" parent="1">
          <mxGeometry x="130" y="200" width="120" height="60" as="geometry" />
        </mxCell>
        <mxCell id="9TajTgmLhOl1ffe2m-NI-2" value="crm: E28 Conceptual Object&lt;div&gt;&quot;Aesopische Fabel&quot; as understood by E.&lt;/div&gt;" style="rounded=0;whiteSpace=wrap;html=1;" vertex="1" parent="1">
          <mxGeometry x="590" y="200" width="120" height="60" as="geometry" />
        </mxCell>
        <mxCell id="cL8Y7EGaAWOSIX7e2ZXP-1" value="" style="endArrow=classic;html=1;rounded=0;exitX=0.5;exitY=0;exitDx=0;exitDy=0;entryX=0.25;entryY=1;entryDx=0;entryDy=0;" edge="1" parent="1" source="9TajTgmLhOl1ffe2m-NI-1" target="tG_bpJKttVnphXvsokyi-1">
          <mxGeometry width="50" height="50" relative="1" as="geometry">
            <mxPoint x="390" y="200" as="sourcePoint" />
            <mxPoint x="440" y="150" as="targetPoint" />
          </mxGeometry>
        </mxCell>
        <mxCell id="cL8Y7EGaAWOSIX7e2ZXP-3" value="crm: P130 shows features of" style="edgeLabel;html=1;align=center;verticalAlign=middle;resizable=0;points=[];" vertex="1" connectable="0" parent="cL8Y7EGaAWOSIX7e2ZXP-1">
          <mxGeometry x="-0.0008" relative="1" as="geometry">
            <mxPoint as="offset" />
          </mxGeometry>
        </mxCell>
        <mxCell id="cL8Y7EGaAWOSIX7e2ZXP-2" value="" style="endArrow=classic;html=1;rounded=0;exitX=0.5;exitY=0;exitDx=0;exitDy=0;entryX=0.75;entryY=1;entryDx=0;entryDy=0;" edge="1" parent="1" source="9TajTgmLhOl1ffe2m-NI-2" target="tG_bpJKttVnphXvsokyi-1">
          <mxGeometry width="50" height="50" relative="1" as="geometry">
            <mxPoint x="390" y="200" as="sourcePoint" />
            <mxPoint x="440" y="150" as="targetPoint" />
          </mxGeometry>
        </mxCell>
        <mxCell id="cL8Y7EGaAWOSIX7e2ZXP-4" value="crm: P130 shows features of" style="edgeLabel;html=1;align=center;verticalAlign=middle;resizable=0;points=[];" vertex="1" connectable="0" parent="cL8Y7EGaAWOSIX7e2ZXP-2">
          <mxGeometry x="0.0092" y="-2" relative="1" as="geometry">
            <mxPoint as="offset" />
          </mxGeometry>
        </mxCell>
        <mxCell id="cL8Y7EGaAWOSIX7e2ZXP-5" value="" style="endArrow=classic;startArrow=classic;html=1;rounded=0;exitX=1;exitY=0.25;exitDx=0;exitDy=0;entryX=0;entryY=0.5;entryDx=0;entryDy=0;" edge="1" parent="1" target="gsp-RMpc234YVbCF9Upx-2">
          <mxGeometry width="50" height="50" relative="1" as="geometry">
            <mxPoint x="250" y="349.5" as="sourcePoint" />
            <mxPoint x="590" y="349.5" as="targetPoint" />
          </mxGeometry>
        </mxCell>
        <mxCell id="cL8Y7EGaAWOSIX7e2ZXP-6" value="skos:closeMatch" style="edgeLabel;html=1;align=center;verticalAlign=middle;resizable=0;points=[];" vertex="1" connectable="0" parent="cL8Y7EGaAWOSIX7e2ZXP-5">
          <mxGeometry x="0.0052" y="1" relative="1" as="geometry">
            <mxPoint x="-7" as="offset" />
          </mxGeometry>
        </mxCell>
        <mxCell id="cL8Y7EGaAWOSIX7e2ZXP-8" value="" style="endArrow=classic;startArrow=classic;html=1;rounded=0;exitX=1;exitY=0.5;exitDx=0;exitDy=0;entryX=0;entryY=0.5;entryDx=0;entryDy=0;" edge="1" parent="1" source="9TajTgmLhOl1ffe2m-NI-1" target="9TajTgmLhOl1ffe2m-NI-2">
          <mxGeometry width="50" height="50" relative="1" as="geometry">
            <mxPoint x="390" y="200" as="sourcePoint" />
            <mxPoint x="440" y="150" as="targetPoint" />
          </mxGeometry>
        </mxCell>
        <mxCell id="cL8Y7EGaAWOSIX7e2ZXP-9" value="crm: P130 shows features of" style="edgeLabel;html=1;align=center;verticalAlign=middle;resizable=0;points=[];" vertex="1" connectable="0" parent="cL8Y7EGaAWOSIX7e2ZXP-8">
          <mxGeometry x="-0.0006" relative="1" as="geometry">
            <mxPoint x="-6" as="offset" />
          </mxGeometry>
        </mxCell>
        <mxCell id="cL8Y7EGaAWOSIX7e2ZXP-10" value="" style="endArrow=block;html=1;rounded=0;dashed=1;endFill=0;" edge="1" parent="1">
          <mxGeometry width="50" height="50" relative="1" as="geometry">
            <mxPoint x="410" y="340" as="sourcePoint" />
            <mxPoint x="410" y="240" as="targetPoint" />
          </mxGeometry>
        </mxCell>
        <mxCell id="cL8Y7EGaAWOSIX7e2ZXP-13" value="rdfs: subPropertyOf" style="edgeLabel;html=1;align=center;verticalAlign=middle;resizable=0;points=[];" vertex="1" connectable="0" parent="cL8Y7EGaAWOSIX7e2ZXP-10">
          <mxGeometry x="0.0399" y="-2" relative="1" as="geometry">
            <mxPoint as="offset" />
          </mxGeometry>
        </mxCell>
        <mxCell id="cL8Y7EGaAWOSIX7e2ZXP-14" value="" style="endArrow=classic;html=1;rounded=0;entryX=0;entryY=0.5;entryDx=0;entryDy=0;dashed=1;exitX=0.5;exitY=0;exitDx=0;exitDy=0;" edge="1" parent="1" source="Ap-wp_gGVWFfO6KOztyA-1" target="9TajTgmLhOl1ffe2m-NI-1">
          <mxGeometry width="50" height="50" relative="1" as="geometry">
            <mxPoint x="-20" y="280" as="sourcePoint" />
            <mxPoint x="120" y="230" as="targetPoint" />
          </mxGeometry>
        </mxCell>
        <mxCell id="Ap-wp_gGVWFfO6KOztyA-1" value="..." style="rounded=0;whiteSpace=wrap;html=1;dashed=1;" vertex="1" parent="1">
          <mxGeometry x="-90" y="260" width="120" height="60" as="geometry" />
        </mxCell>
        <mxCell id="Ap-wp_gGVWFfO6KOztyA-2" value="" style="endArrow=classic;html=1;rounded=0;exitX=0;exitY=0.5;exitDx=0;exitDy=0;entryX=0.5;entryY=1;entryDx=0;entryDy=0;dashed=1;" edge="1" parent="1" source="gsp-RMpc234YVbCF9Upx-1" target="Ap-wp_gGVWFfO6KOztyA-1">
          <mxGeometry width="50" height="50" relative="1" as="geometry">
            <mxPoint x="300" y="200" as="sourcePoint" />
            <mxPoint x="350" y="150" as="targetPoint" />
          </mxGeometry>
        </mxCell>
        <mxCell id="Ap-wp_gGVWFfO6KOztyA-4" value="..." style="rounded=0;whiteSpace=wrap;html=1;dashed=1;" vertex="1" parent="1">
          <mxGeometry x="810" y="245" width="120" height="60" as="geometry" />
        </mxCell>
        <mxCell id="Ap-wp_gGVWFfO6KOztyA-5" value="" style="endArrow=classic;html=1;rounded=0;entryX=1;entryY=0.5;entryDx=0;entryDy=0;dashed=1;exitX=0.5;exitY=0;exitDx=0;exitDy=0;" edge="1" parent="1" source="Ap-wp_gGVWFfO6KOztyA-6" target="9TajTgmLhOl1ffe2m-NI-2">
          <mxGeometry width="50" height="50" relative="1" as="geometry">
            <mxPoint x="870" y="270" as="sourcePoint" />
            <mxPoint x="1020" y="220" as="targetPoint" />
          </mxGeometry>
        </mxCell>
        <mxCell id="Ap-wp_gGVWFfO6KOztyA-6" value="..." style="rounded=0;whiteSpace=wrap;html=1;dashed=1;" vertex="1" parent="1">
          <mxGeometry x="800" y="255" width="120" height="60" as="geometry" />
        </mxCell>
        <mxCell id="Ap-wp_gGVWFfO6KOztyA-7" value="" style="endArrow=classic;html=1;rounded=0;exitX=0.5;exitY=1;exitDx=0;exitDy=0;entryX=1;entryY=0.5;entryDx=0;entryDy=0;dashed=1;" edge="1" parent="1" target="gsp-RMpc234YVbCF9Upx-2" source="Ap-wp_gGVWFfO6KOztyA-6">
          <mxGeometry width="50" height="50" relative="1" as="geometry">
            <mxPoint x="1020" y="340" as="sourcePoint" />
            <mxPoint x="1240" y="140" as="targetPoint" />
          </mxGeometry>
        </mxCell>
      </root>
    </mxGraphModel>
  </diagram>
  <diagram name="connections of concepts of individual authors" id="GYlSPShFcUEZ_cKrb_pj">
    <mxGraphModel dx="1974" dy="663" grid="1" gridSize="10" guides="1" tooltips="1" connect="1" arrows="1" fold="1" page="1" pageScale="1" pageWidth="827" pageHeight="1169" math="0" shadow="0">
      <root>
        <mxCell id="cPx55SWtZvwa_A1XihNU-0" />
        <mxCell id="cPx55SWtZvwa_A1XihNU-1" parent="cPx55SWtZvwa_A1XihNU-0" />
        <mxCell id="cPx55SWtZvwa_A1XihNU-2" value="..." style="rounded=0;whiteSpace=wrap;html=1;dashed=1;" vertex="1" parent="cPx55SWtZvwa_A1XihNU-1">
          <mxGeometry x="-80" y="250" width="120" height="60" as="geometry" />
        </mxCell>
        <mxCell id="cPx55SWtZvwa_A1XihNU-3" value="skos:Concept&lt;div&gt;&quot;Äsopische Fabel&quot;&lt;/div&gt;&lt;div&gt;(Bouterwek&lt;span style=&quot;background-color: initial;&quot;&gt;)&lt;/span&gt;&lt;/div&gt;" style="rounded=0;whiteSpace=wrap;html=1;" vertex="1" parent="cPx55SWtZvwa_A1XihNU-1">
          <mxGeometry x="130" y="320" width="120" height="60" as="geometry" />
        </mxCell>
        <mxCell id="cPx55SWtZvwa_A1XihNU-4" value="skos:Concept&lt;div&gt;&quot;Aesopische Fabel&quot;&lt;/div&gt;&lt;div&gt;(Eschenburg)&lt;/div&gt;" style="rounded=0;whiteSpace=wrap;html=1;" vertex="1" parent="cPx55SWtZvwa_A1XihNU-1">
          <mxGeometry x="590" y="320" width="120" height="60" as="geometry" />
        </mxCell>
        <UserObject label="&lt;span style=&quot;color: rgb(71, 75, 79); font-family: &amp;quot;Fira Sans&amp;quot;, sans-serif; font-size: 14px; font-style: normal; font-variant-ligatures: normal; font-variant-caps: normal; font-weight: 400; letter-spacing: normal; orphans: 2; text-align: start; text-indent: 0px; text-transform: none; widows: 2; word-spacing: 0px; -webkit-text-stroke-width: 0px; white-space: normal; background-color: rgb(255, 255, 255); text-decoration-thickness: initial; text-decoration-style: initial; text-decoration-color: initial; display: inline !important; float: none;&quot;&gt;https://genre.clscor.io/eschenburg/aesopische_fabel&lt;/span&gt;" link="&lt;span style=&quot;color: rgb(71, 75, 79); font-family: &amp;quot;Fira Sans&amp;quot;, sans-serif; font-size: 14px; font-style: normal; font-variant-ligatures: normal; font-variant-caps: normal; font-weight: 400; letter-spacing: normal; orphans: 2; text-align: start; text-indent: 0px; text-transform: none; widows: 2; word-spacing: 0px; -webkit-text-stroke-width: 0px; white-space: normal; background-color: rgb(255, 255, 255); text-decoration-thickness: initial; text-decoration-style: initial; text-decoration-color: initial; display: inline !important; float: none;&quot;&gt;https://genre.clscor.io/eschenburg/aesopische_fabel&lt;/span&gt;" id="cPx55SWtZvwa_A1XihNU-5">
          <mxCell style="text;whiteSpace=wrap;html=1;" vertex="1" parent="cPx55SWtZvwa_A1XihNU-1">
            <mxGeometry x="25" y="380" width="330" height="40" as="geometry" />
          </mxCell>
        </UserObject>
        <UserObject label="&lt;span style=&quot;color: rgb(71, 75, 79); font-family: &amp;quot;Fira Sans&amp;quot;, sans-serif; font-size: 14px; font-style: normal; font-variant-ligatures: normal; font-variant-caps: normal; font-weight: 400; letter-spacing: normal; orphans: 2; text-align: start; text-indent: 0px; text-transform: none; widows: 2; word-spacing: 0px; -webkit-text-stroke-width: 0px; white-space: normal; background-color: rgb(255, 255, 255); text-decoration-thickness: initial; text-decoration-style: initial; text-decoration-color: initial; display: inline !important; float: none;&quot;&gt;https://genre.clscor.io/bouterwek/aesopische_fabel&lt;/span&gt;" link="&lt;span style=&quot;color: rgb(71, 75, 79); font-family: &amp;quot;Fira Sans&amp;quot;, sans-serif; font-size: 14px; font-style: normal; font-variant-ligatures: normal; font-variant-caps: normal; font-weight: 400; letter-spacing: normal; orphans: 2; text-align: start; text-indent: 0px; text-transform: none; widows: 2; word-spacing: 0px; -webkit-text-stroke-width: 0px; white-space: normal; background-color: rgb(255, 255, 255); text-decoration-thickness: initial; text-decoration-style: initial; text-decoration-color: initial; display: inline !important; float: none;&quot;&gt;https://genre.clscor.io/bouterwek/aesopische_fabel&lt;/span&gt;" id="cPx55SWtZvwa_A1XihNU-6">
          <mxCell style="text;whiteSpace=wrap;html=1;" vertex="1" parent="cPx55SWtZvwa_A1XihNU-1">
            <mxGeometry x="475" y="380" width="350" height="40" as="geometry" />
          </mxCell>
        </UserObject>
        <mxCell id="cPx55SWtZvwa_A1XihNU-8" value="crm: E28 Conceptual Object&lt;div&gt;&quot;Äsopische Fabel&quot; as understood by B.&lt;/div&gt;" style="rounded=0;whiteSpace=wrap;html=1;" vertex="1" parent="cPx55SWtZvwa_A1XihNU-1">
          <mxGeometry x="130" y="200" width="120" height="60" as="geometry" />
        </mxCell>
        <mxCell id="cPx55SWtZvwa_A1XihNU-9" value="crm: E28 Conceptual Object&lt;div&gt;&quot;Aesopische Fabel&quot; as understood by E.&lt;/div&gt;" style="rounded=0;whiteSpace=wrap;html=1;" vertex="1" parent="cPx55SWtZvwa_A1XihNU-1">
          <mxGeometry x="590" y="200" width="120" height="60" as="geometry" />
        </mxCell>
        <mxCell id="cPx55SWtZvwa_A1XihNU-14" value="" style="endArrow=classic;startArrow=classic;html=1;rounded=0;exitX=1;exitY=0.25;exitDx=0;exitDy=0;entryX=0;entryY=0.5;entryDx=0;entryDy=0;" edge="1" parent="cPx55SWtZvwa_A1XihNU-1" target="cPx55SWtZvwa_A1XihNU-4">
          <mxGeometry width="50" height="50" relative="1" as="geometry">
            <mxPoint x="250" y="349.5" as="sourcePoint" />
            <mxPoint x="590" y="349.5" as="targetPoint" />
          </mxGeometry>
        </mxCell>
        <mxCell id="cPx55SWtZvwa_A1XihNU-15" value="skos:closeMatch" style="edgeLabel;html=1;align=center;verticalAlign=middle;resizable=0;points=[];" vertex="1" connectable="0" parent="cPx55SWtZvwa_A1XihNU-14">
          <mxGeometry x="0.0052" y="1" relative="1" as="geometry">
            <mxPoint x="-7" as="offset" />
          </mxGeometry>
        </mxCell>
        <mxCell id="cPx55SWtZvwa_A1XihNU-16" value="" style="endArrow=classic;startArrow=classic;html=1;rounded=0;exitX=1;exitY=0.5;exitDx=0;exitDy=0;entryX=0;entryY=0.5;entryDx=0;entryDy=0;" edge="1" parent="cPx55SWtZvwa_A1XihNU-1" source="cPx55SWtZvwa_A1XihNU-8" target="cPx55SWtZvwa_A1XihNU-9">
          <mxGeometry width="50" height="50" relative="1" as="geometry">
            <mxPoint x="390" y="200" as="sourcePoint" />
            <mxPoint x="440" y="150" as="targetPoint" />
          </mxGeometry>
        </mxCell>
        <mxCell id="cPx55SWtZvwa_A1XihNU-17" value="crm: P130 shows features of" style="edgeLabel;html=1;align=center;verticalAlign=middle;resizable=0;points=[];" vertex="1" connectable="0" parent="cPx55SWtZvwa_A1XihNU-16">
          <mxGeometry x="-0.0006" relative="1" as="geometry">
            <mxPoint x="-6" as="offset" />
          </mxGeometry>
        </mxCell>
        <mxCell id="cPx55SWtZvwa_A1XihNU-18" value="" style="endArrow=block;html=1;rounded=0;dashed=1;endFill=0;" edge="1" parent="cPx55SWtZvwa_A1XihNU-1">
          <mxGeometry width="50" height="50" relative="1" as="geometry">
            <mxPoint x="410" y="340" as="sourcePoint" />
            <mxPoint x="410" y="240" as="targetPoint" />
          </mxGeometry>
        </mxCell>
        <mxCell id="cPx55SWtZvwa_A1XihNU-19" value="rdfs: subPropertyOf" style="edgeLabel;html=1;align=center;verticalAlign=middle;resizable=0;points=[];" vertex="1" connectable="0" parent="cPx55SWtZvwa_A1XihNU-18">
          <mxGeometry x="0.0399" y="-2" relative="1" as="geometry">
            <mxPoint as="offset" />
          </mxGeometry>
        </mxCell>
        <mxCell id="cPx55SWtZvwa_A1XihNU-20" value="" style="endArrow=classic;html=1;rounded=0;entryX=0;entryY=0.5;entryDx=0;entryDy=0;dashed=1;exitX=0.5;exitY=0;exitDx=0;exitDy=0;" edge="1" parent="cPx55SWtZvwa_A1XihNU-1" source="cPx55SWtZvwa_A1XihNU-21" target="cPx55SWtZvwa_A1XihNU-8">
          <mxGeometry width="50" height="50" relative="1" as="geometry">
            <mxPoint x="-20" y="280" as="sourcePoint" />
            <mxPoint x="120" y="230" as="targetPoint" />
          </mxGeometry>
        </mxCell>
        <mxCell id="cPx55SWtZvwa_A1XihNU-21" value="..." style="rounded=0;whiteSpace=wrap;html=1;dashed=1;" vertex="1" parent="cPx55SWtZvwa_A1XihNU-1">
          <mxGeometry x="-90" y="260" width="120" height="60" as="geometry" />
        </mxCell>
        <mxCell id="cPx55SWtZvwa_A1XihNU-22" value="" style="endArrow=classic;html=1;rounded=0;exitX=0;exitY=0.5;exitDx=0;exitDy=0;entryX=0.5;entryY=1;entryDx=0;entryDy=0;dashed=1;" edge="1" parent="cPx55SWtZvwa_A1XihNU-1" source="cPx55SWtZvwa_A1XihNU-3" target="cPx55SWtZvwa_A1XihNU-21">
          <mxGeometry width="50" height="50" relative="1" as="geometry">
            <mxPoint x="300" y="200" as="sourcePoint" />
            <mxPoint x="350" y="150" as="targetPoint" />
          </mxGeometry>
        </mxCell>
        <mxCell id="cPx55SWtZvwa_A1XihNU-23" value="..." style="rounded=0;whiteSpace=wrap;html=1;dashed=1;" vertex="1" parent="cPx55SWtZvwa_A1XihNU-1">
          <mxGeometry x="810" y="245" width="120" height="60" as="geometry" />
        </mxCell>
        <mxCell id="cPx55SWtZvwa_A1XihNU-24" value="" style="endArrow=classic;html=1;rounded=0;entryX=1;entryY=0.5;entryDx=0;entryDy=0;dashed=1;exitX=0.5;exitY=0;exitDx=0;exitDy=0;" edge="1" parent="cPx55SWtZvwa_A1XihNU-1" source="cPx55SWtZvwa_A1XihNU-25" target="cPx55SWtZvwa_A1XihNU-9">
          <mxGeometry width="50" height="50" relative="1" as="geometry">
            <mxPoint x="870" y="270" as="sourcePoint" />
            <mxPoint x="1020" y="220" as="targetPoint" />
          </mxGeometry>
        </mxCell>
        <mxCell id="cPx55SWtZvwa_A1XihNU-25" value="..." style="rounded=0;whiteSpace=wrap;html=1;dashed=1;" vertex="1" parent="cPx55SWtZvwa_A1XihNU-1">
          <mxGeometry x="800" y="255" width="120" height="60" as="geometry" />
        </mxCell>
        <mxCell id="cPx55SWtZvwa_A1XihNU-26" value="" style="endArrow=classic;html=1;rounded=0;exitX=0.5;exitY=1;exitDx=0;exitDy=0;entryX=1;entryY=0.5;entryDx=0;entryDy=0;dashed=1;" edge="1" parent="cPx55SWtZvwa_A1XihNU-1" source="cPx55SWtZvwa_A1XihNU-25" target="cPx55SWtZvwa_A1XihNU-4">
          <mxGeometry width="50" height="50" relative="1" as="geometry">
            <mxPoint x="1020" y="340" as="sourcePoint" />
            <mxPoint x="1240" y="140" as="targetPoint" />
          </mxGeometry>
        </mxCell>
      </root>
    </mxGraphModel>
  </diagram>
  <diagram name="show_feature_of_as_atttribute_assignment" id="XixEShNVrW_5_rvMGk1_">
    <mxGraphModel dx="1974" dy="1832" grid="1" gridSize="10" guides="1" tooltips="1" connect="1" arrows="1" fold="1" page="1" pageScale="1" pageWidth="827" pageHeight="1169" math="0" shadow="0">
      <root>
        <mxCell id="m212x2TXjJ36V3FqXINr-0" />
        <mxCell id="m212x2TXjJ36V3FqXINr-1" parent="m212x2TXjJ36V3FqXINr-0" />
        <mxCell id="m212x2TXjJ36V3FqXINr-2" value="..." style="rounded=0;whiteSpace=wrap;html=1;dashed=1;" vertex="1" parent="m212x2TXjJ36V3FqXINr-1">
          <mxGeometry x="-80" y="250" width="120" height="60" as="geometry" />
        </mxCell>
        <mxCell id="m212x2TXjJ36V3FqXINr-3" value="skos:Concept&lt;div&gt;&quot;Äsopische Fabel&quot;&lt;/div&gt;&lt;div&gt;(Bouterwek&lt;span style=&quot;background-color: initial;&quot;&gt;)&lt;/span&gt;&lt;/div&gt;" style="rounded=0;whiteSpace=wrap;html=1;" vertex="1" parent="m212x2TXjJ36V3FqXINr-1">
          <mxGeometry x="130" y="320" width="120" height="60" as="geometry" />
        </mxCell>
        <mxCell id="m212x2TXjJ36V3FqXINr-4" value="skos:Concept&lt;div&gt;&quot;Aesopische Fabel&quot;&lt;/div&gt;&lt;div&gt;(Eschenburg)&lt;/div&gt;" style="rounded=0;whiteSpace=wrap;html=1;" vertex="1" parent="m212x2TXjJ36V3FqXINr-1">
          <mxGeometry x="590" y="320" width="120" height="60" as="geometry" />
        </mxCell>
        <UserObject label="&lt;span style=&quot;color: rgb(71, 75, 79); font-family: &amp;quot;Fira Sans&amp;quot;, sans-serif; font-size: 14px; font-style: normal; font-variant-ligatures: normal; font-variant-caps: normal; font-weight: 400; letter-spacing: normal; orphans: 2; text-align: start; text-indent: 0px; text-transform: none; widows: 2; word-spacing: 0px; -webkit-text-stroke-width: 0px; white-space: normal; background-color: rgb(255, 255, 255); text-decoration-thickness: initial; text-decoration-style: initial; text-decoration-color: initial; display: inline !important; float: none;&quot;&gt;https://genre.clscor.io/eschenburg/aesopische_fabel&lt;/span&gt;" link="&lt;span style=&quot;color: rgb(71, 75, 79); font-family: &amp;quot;Fira Sans&amp;quot;, sans-serif; font-size: 14px; font-style: normal; font-variant-ligatures: normal; font-variant-caps: normal; font-weight: 400; letter-spacing: normal; orphans: 2; text-align: start; text-indent: 0px; text-transform: none; widows: 2; word-spacing: 0px; -webkit-text-stroke-width: 0px; white-space: normal; background-color: rgb(255, 255, 255); text-decoration-thickness: initial; text-decoration-style: initial; text-decoration-color: initial; display: inline !important; float: none;&quot;&gt;https://genre.clscor.io/eschenburg/aesopische_fabel&lt;/span&gt;" id="m212x2TXjJ36V3FqXINr-5">
          <mxCell style="text;whiteSpace=wrap;html=1;" vertex="1" parent="m212x2TXjJ36V3FqXINr-1">
            <mxGeometry x="25" y="380" width="330" height="40" as="geometry" />
          </mxCell>
        </UserObject>
        <UserObject label="&lt;span style=&quot;color: rgb(71, 75, 79); font-family: &amp;quot;Fira Sans&amp;quot;, sans-serif; font-size: 14px; font-style: normal; font-variant-ligatures: normal; font-variant-caps: normal; font-weight: 400; letter-spacing: normal; orphans: 2; text-align: start; text-indent: 0px; text-transform: none; widows: 2; word-spacing: 0px; -webkit-text-stroke-width: 0px; white-space: normal; background-color: rgb(255, 255, 255); text-decoration-thickness: initial; text-decoration-style: initial; text-decoration-color: initial; display: inline !important; float: none;&quot;&gt;https://genre.clscor.io/bouterwek/aesopische_fabel&lt;/span&gt;" link="&lt;span style=&quot;color: rgb(71, 75, 79); font-family: &amp;quot;Fira Sans&amp;quot;, sans-serif; font-size: 14px; font-style: normal; font-variant-ligatures: normal; font-variant-caps: normal; font-weight: 400; letter-spacing: normal; orphans: 2; text-align: start; text-indent: 0px; text-transform: none; widows: 2; word-spacing: 0px; -webkit-text-stroke-width: 0px; white-space: normal; background-color: rgb(255, 255, 255); text-decoration-thickness: initial; text-decoration-style: initial; text-decoration-color: initial; display: inline !important; float: none;&quot;&gt;https://genre.clscor.io/bouterwek/aesopische_fabel&lt;/span&gt;" id="m212x2TXjJ36V3FqXINr-6">
          <mxCell style="text;whiteSpace=wrap;html=1;" vertex="1" parent="m212x2TXjJ36V3FqXINr-1">
            <mxGeometry x="475" y="380" width="350" height="40" as="geometry" />
          </mxCell>
        </UserObject>
        <mxCell id="m212x2TXjJ36V3FqXINr-7" value="crm: E28 Conceptual Object&lt;div&gt;&quot;Äsopische Fabel&quot; as understood by B.&lt;/div&gt;" style="rounded=0;whiteSpace=wrap;html=1;" vertex="1" parent="m212x2TXjJ36V3FqXINr-1">
          <mxGeometry x="130" y="200" width="120" height="60" as="geometry" />
        </mxCell>
        <mxCell id="m212x2TXjJ36V3FqXINr-8" value="crm: E28 Conceptual Object&lt;div&gt;&quot;Aesopische Fabel&quot; as understood by E.&lt;/div&gt;" style="rounded=0;whiteSpace=wrap;html=1;" vertex="1" parent="m212x2TXjJ36V3FqXINr-1">
          <mxGeometry x="590" y="200" width="120" height="60" as="geometry" />
        </mxCell>
        <mxCell id="m212x2TXjJ36V3FqXINr-9" value="" style="endArrow=classic;startArrow=classic;html=1;rounded=0;exitX=1;exitY=0.25;exitDx=0;exitDy=0;entryX=0;entryY=0.5;entryDx=0;entryDy=0;" edge="1" parent="m212x2TXjJ36V3FqXINr-1" target="m212x2TXjJ36V3FqXINr-4">
          <mxGeometry width="50" height="50" relative="1" as="geometry">
            <mxPoint x="250" y="349.5" as="sourcePoint" />
            <mxPoint x="590" y="349.5" as="targetPoint" />
          </mxGeometry>
        </mxCell>
        <mxCell id="m212x2TXjJ36V3FqXINr-10" value="skos:closeMatch" style="edgeLabel;html=1;align=center;verticalAlign=middle;resizable=0;points=[];" vertex="1" connectable="0" parent="m212x2TXjJ36V3FqXINr-9">
          <mxGeometry x="0.0052" y="1" relative="1" as="geometry">
            <mxPoint x="-7" as="offset" />
          </mxGeometry>
        </mxCell>
        <mxCell id="m212x2TXjJ36V3FqXINr-13" value="" style="endArrow=block;html=1;rounded=0;dashed=1;endFill=0;" edge="1" parent="m212x2TXjJ36V3FqXINr-1">
          <mxGeometry width="50" height="50" relative="1" as="geometry">
            <mxPoint x="414" y="340" as="sourcePoint" />
            <mxPoint x="414" y="240" as="targetPoint" />
          </mxGeometry>
        </mxCell>
        <mxCell id="m212x2TXjJ36V3FqXINr-14" value="rdfs: subPropertyOf" style="edgeLabel;html=1;align=center;verticalAlign=middle;resizable=0;points=[];" vertex="1" connectable="0" parent="m212x2TXjJ36V3FqXINr-13">
          <mxGeometry x="0.0399" y="-2" relative="1" as="geometry">
            <mxPoint x="-8" y="2" as="offset" />
          </mxGeometry>
        </mxCell>
        <mxCell id="m212x2TXjJ36V3FqXINr-15" value="" style="endArrow=classic;html=1;rounded=0;entryX=0;entryY=0.5;entryDx=0;entryDy=0;dashed=1;exitX=0.5;exitY=0;exitDx=0;exitDy=0;" edge="1" parent="m212x2TXjJ36V3FqXINr-1" source="m212x2TXjJ36V3FqXINr-16" target="m212x2TXjJ36V3FqXINr-7">
          <mxGeometry width="50" height="50" relative="1" as="geometry">
            <mxPoint x="-20" y="280" as="sourcePoint" />
            <mxPoint x="120" y="230" as="targetPoint" />
          </mxGeometry>
        </mxCell>
        <mxCell id="m212x2TXjJ36V3FqXINr-16" value="..." style="rounded=0;whiteSpace=wrap;html=1;dashed=1;" vertex="1" parent="m212x2TXjJ36V3FqXINr-1">
          <mxGeometry x="-90" y="260" width="120" height="60" as="geometry" />
        </mxCell>
        <mxCell id="m212x2TXjJ36V3FqXINr-17" value="" style="endArrow=classic;html=1;rounded=0;exitX=0;exitY=0.5;exitDx=0;exitDy=0;entryX=0.5;entryY=1;entryDx=0;entryDy=0;dashed=1;" edge="1" parent="m212x2TXjJ36V3FqXINr-1" source="m212x2TXjJ36V3FqXINr-3" target="m212x2TXjJ36V3FqXINr-16">
          <mxGeometry width="50" height="50" relative="1" as="geometry">
            <mxPoint x="300" y="200" as="sourcePoint" />
            <mxPoint x="350" y="150" as="targetPoint" />
          </mxGeometry>
        </mxCell>
        <mxCell id="m212x2TXjJ36V3FqXINr-18" value="..." style="rounded=0;whiteSpace=wrap;html=1;dashed=1;" vertex="1" parent="m212x2TXjJ36V3FqXINr-1">
          <mxGeometry x="810" y="245" width="120" height="60" as="geometry" />
        </mxCell>
        <mxCell id="m212x2TXjJ36V3FqXINr-19" value="" style="endArrow=classic;html=1;rounded=0;entryX=1;entryY=0.5;entryDx=0;entryDy=0;dashed=1;exitX=0.5;exitY=0;exitDx=0;exitDy=0;" edge="1" parent="m212x2TXjJ36V3FqXINr-1" source="m212x2TXjJ36V3FqXINr-20" target="m212x2TXjJ36V3FqXINr-8">
          <mxGeometry width="50" height="50" relative="1" as="geometry">
            <mxPoint x="870" y="270" as="sourcePoint" />
            <mxPoint x="1020" y="220" as="targetPoint" />
          </mxGeometry>
        </mxCell>
        <mxCell id="m212x2TXjJ36V3FqXINr-20" value="..." style="rounded=0;whiteSpace=wrap;html=1;dashed=1;" vertex="1" parent="m212x2TXjJ36V3FqXINr-1">
          <mxGeometry x="800" y="255" width="120" height="60" as="geometry" />
        </mxCell>
        <mxCell id="m212x2TXjJ36V3FqXINr-21" value="" style="endArrow=classic;html=1;rounded=0;exitX=0.5;exitY=1;exitDx=0;exitDy=0;entryX=1;entryY=0.5;entryDx=0;entryDy=0;dashed=1;" edge="1" parent="m212x2TXjJ36V3FqXINr-1" source="m212x2TXjJ36V3FqXINr-20" target="m212x2TXjJ36V3FqXINr-4">
          <mxGeometry width="50" height="50" relative="1" as="geometry">
            <mxPoint x="1020" y="340" as="sourcePoint" />
            <mxPoint x="1240" y="140" as="targetPoint" />
          </mxGeometry>
        </mxCell>
        <mxCell id="B_m_vcpcOux3CZHvCfdM-1" value="&lt;font style=&quot;font-size: 10px;&quot;&gt;crm: E13 Attribute Assignment&lt;/font&gt;&lt;div style=&quot;font-size: 10px;&quot;&gt;&lt;font style=&quot;font-size: 10px;&quot;&gt;Linking &quot;Fabel&quot; of Bouterwek to Eschenburg&lt;/font&gt;&lt;/div&gt;" style="rounded=0;whiteSpace=wrap;html=1;" vertex="1" parent="m212x2TXjJ36V3FqXINr-1">
          <mxGeometry x="354" y="20" width="120" height="60" as="geometry" />
        </mxCell>
        <mxCell id="B_m_vcpcOux3CZHvCfdM-2" value="" style="endArrow=classic;html=1;rounded=0;" edge="1" parent="m212x2TXjJ36V3FqXINr-1" target="B_m_vcpcOux3CZHvCfdM-3">
          <mxGeometry width="50" height="50" relative="1" as="geometry">
            <mxPoint x="414" y="80" as="sourcePoint" />
            <mxPoint x="400" y="-60" as="targetPoint" />
          </mxGeometry>
        </mxCell>
        <mxCell id="B_m_vcpcOux3CZHvCfdM-5" value="crm: P177 assigned property of type" style="edgeLabel;html=1;align=center;verticalAlign=middle;resizable=0;points=[];" vertex="1" connectable="0" parent="B_m_vcpcOux3CZHvCfdM-2">
          <mxGeometry x="0.0471" relative="1" as="geometry">
            <mxPoint y="-6" as="offset" />
          </mxGeometry>
        </mxCell>
        <mxCell id="B_m_vcpcOux3CZHvCfdM-3" value="&lt;div&gt;crm: E55 Type&lt;/div&gt;crm: P130 shows features of" style="rounded=0;whiteSpace=wrap;html=1;" vertex="1" parent="m212x2TXjJ36V3FqXINr-1">
          <mxGeometry x="354" y="130" width="120" height="60" as="geometry" />
        </mxCell>
        <mxCell id="B_m_vcpcOux3CZHvCfdM-4" value="&quot;Note that the properties defined by the CIDOC CRM also constitute&lt;br&gt;instances of E55 Type themselves.&quot;&amp;nbsp;" style="text;html=1;align=center;verticalAlign=middle;resizable=0;points=[];autosize=1;strokeColor=none;fillColor=none;" vertex="1" parent="m212x2TXjJ36V3FqXINr-1">
          <mxGeometry x="550" y="60" width="380" height="40" as="geometry" />
        </mxCell>
        <mxCell id="B_m_vcpcOux3CZHvCfdM-6" value="" style="endArrow=classic;html=1;rounded=0;exitX=0;exitY=0.5;exitDx=0;exitDy=0;entryX=0.5;entryY=0;entryDx=0;entryDy=0;" edge="1" parent="m212x2TXjJ36V3FqXINr-1" source="B_m_vcpcOux3CZHvCfdM-1" target="m212x2TXjJ36V3FqXINr-7">
          <mxGeometry width="50" height="50" relative="1" as="geometry">
            <mxPoint x="370" y="220" as="sourcePoint" />
            <mxPoint x="420" y="170" as="targetPoint" />
          </mxGeometry>
        </mxCell>
        <mxCell id="B_m_vcpcOux3CZHvCfdM-7" value="crm: P140 assigned attribute to" style="edgeLabel;html=1;align=center;verticalAlign=middle;resizable=0;points=[];" vertex="1" connectable="0" parent="B_m_vcpcOux3CZHvCfdM-6">
          <mxGeometry x="-0.0211" relative="1" as="geometry">
            <mxPoint x="-34" y="26" as="offset" />
          </mxGeometry>
        </mxCell>
        <mxCell id="B_m_vcpcOux3CZHvCfdM-8" value="" style="endArrow=classic;html=1;rounded=0;exitX=1;exitY=0.5;exitDx=0;exitDy=0;entryX=0;entryY=0.5;entryDx=0;entryDy=0;" edge="1" parent="m212x2TXjJ36V3FqXINr-1" source="m212x2TXjJ36V3FqXINr-7" target="m212x2TXjJ36V3FqXINr-8">
          <mxGeometry width="50" height="50" relative="1" as="geometry">
            <mxPoint x="370" y="220" as="sourcePoint" />
            <mxPoint x="420" y="170" as="targetPoint" />
          </mxGeometry>
        </mxCell>
        <mxCell id="B_m_vcpcOux3CZHvCfdM-9" value="crm: P130 shows feature of" style="edgeLabel;html=1;align=center;verticalAlign=middle;resizable=0;points=[];" vertex="1" connectable="0" parent="B_m_vcpcOux3CZHvCfdM-8">
          <mxGeometry x="-0.0124" relative="1" as="geometry">
            <mxPoint as="offset" />
          </mxGeometry>
        </mxCell>
        <mxCell id="B_m_vcpcOux3CZHvCfdM-10" value="" style="endArrow=classic;html=1;rounded=0;exitX=1;exitY=0.5;exitDx=0;exitDy=0;entryX=0.5;entryY=0;entryDx=0;entryDy=0;" edge="1" parent="m212x2TXjJ36V3FqXINr-1" source="B_m_vcpcOux3CZHvCfdM-1" target="m212x2TXjJ36V3FqXINr-8">
          <mxGeometry width="50" height="50" relative="1" as="geometry">
            <mxPoint x="370" y="220" as="sourcePoint" />
            <mxPoint x="420" y="170" as="targetPoint" />
          </mxGeometry>
        </mxCell>
        <mxCell id="B_m_vcpcOux3CZHvCfdM-11" value="crm: P141 assigned" style="edgeLabel;html=1;align=center;verticalAlign=middle;resizable=0;points=[];" vertex="1" connectable="0" parent="B_m_vcpcOux3CZHvCfdM-10">
          <mxGeometry x="-0.0002" relative="1" as="geometry">
            <mxPoint x="38" y="25" as="offset" />
          </mxGeometry>
        </mxCell>
        <mxCell id="B_m_vcpcOux3CZHvCfdM-12" value="" style="endArrow=classic;html=1;rounded=0;exitX=0.5;exitY=0;exitDx=0;exitDy=0;entryX=0.5;entryY=1;entryDx=0;entryDy=0;" edge="1" parent="m212x2TXjJ36V3FqXINr-1" source="B_m_vcpcOux3CZHvCfdM-1" target="B_m_vcpcOux3CZHvCfdM-14">
          <mxGeometry width="50" height="50" relative="1" as="geometry">
            <mxPoint x="370" y="220" as="sourcePoint" />
            <mxPoint x="700" y="65" as="targetPoint" />
          </mxGeometry>
        </mxCell>
        <mxCell id="B_m_vcpcOux3CZHvCfdM-13" value="crm: P14 carried out by" style="edgeLabel;html=1;align=center;verticalAlign=middle;resizable=0;points=[];" vertex="1" connectable="0" parent="B_m_vcpcOux3CZHvCfdM-12">
          <mxGeometry x="0.0167" y="1" relative="1" as="geometry">
            <mxPoint as="offset" />
          </mxGeometry>
        </mxCell>
        <mxCell id="B_m_vcpcOux3CZHvCfdM-14" value="crm: E39 Actor&lt;div&gt;Peer Trilcke and Ingo Börner&lt;/div&gt;" style="rounded=0;whiteSpace=wrap;html=1;" vertex="1" parent="m212x2TXjJ36V3FqXINr-1">
          <mxGeometry x="354" y="-110" width="120" height="60" as="geometry" />
        </mxCell>
      </root>
    </mxGraphModel>
  </diagram>
  <diagram id="dcvZbFqNQUrhmv1lsxxE" name="Believe-argumentation_model">
    <mxGraphModel dx="1974" dy="663" grid="1" gridSize="10" guides="1" tooltips="1" connect="1" arrows="1" fold="1" page="1" pageScale="1" pageWidth="827" pageHeight="1169" math="0" shadow="0">
      <root>
        <mxCell id="0" />
        <mxCell id="1" parent="0" />
        <mxCell id="mT2_YZO8V1hmkLwzNB_g-9" value="" style="rounded=0;whiteSpace=wrap;html=1;" parent="1" vertex="1">
          <mxGeometry x="445" y="320" width="390" height="120" as="geometry" />
        </mxCell>
        <mxCell id="mT2_YZO8V1hmkLwzNB_g-1" value="inf: I4 Proposition Set" style="rounded=0;whiteSpace=wrap;html=1;" parent="1" vertex="1">
          <mxGeometry x="580" y="270" width="120" height="60" as="geometry" />
        </mxCell>
        <mxCell id="mT2_YZO8V1hmkLwzNB_g-2" value="" style="endArrow=classic;html=1;rounded=0;entryX=0;entryY=0.5;entryDx=0;entryDy=0;exitX=1;exitY=0.5;exitDx=0;exitDy=0;" parent="1" source="mT2_YZO8V1hmkLwzNB_g-4" target="mT2_YZO8V1hmkLwzNB_g-1" edge="1">
          <mxGeometry width="50" height="50" relative="1" as="geometry">
            <mxPoint x="420" y="300" as="sourcePoint" />
            <mxPoint x="350" y="340" as="targetPoint" />
          </mxGeometry>
        </mxCell>
        <mxCell id="mT2_YZO8V1hmkLwzNB_g-3" value="inf: J4 that" style="edgeLabel;html=1;align=center;verticalAlign=middle;resizable=0;points=[];" parent="mT2_YZO8V1hmkLwzNB_g-2" vertex="1" connectable="0">
          <mxGeometry x="-0.0774" relative="1" as="geometry">
            <mxPoint as="offset" />
          </mxGeometry>
        </mxCell>
        <mxCell id="mT2_YZO8V1hmkLwzNB_g-4" value="inf: I2 Belief" style="rounded=0;whiteSpace=wrap;html=1;" parent="1" vertex="1">
          <mxGeometry x="200" y="270" width="120" height="60" as="geometry" />
        </mxCell>
        <mxCell id="mT2_YZO8V1hmkLwzNB_g-5" value="skos: Concept" style="rounded=0;whiteSpace=wrap;html=1;" parent="1" vertex="1">
          <mxGeometry x="460" y="350" width="120" height="60" as="geometry" />
        </mxCell>
        <mxCell id="mT2_YZO8V1hmkLwzNB_g-6" value="" style="endArrow=classic;html=1;rounded=0;exitX=1;exitY=0.5;exitDx=0;exitDy=0;" parent="1" source="mT2_YZO8V1hmkLwzNB_g-5" target="mT2_YZO8V1hmkLwzNB_g-8" edge="1">
          <mxGeometry width="50" height="50" relative="1" as="geometry">
            <mxPoint x="390" y="380" as="sourcePoint" />
            <mxPoint x="730" y="460" as="targetPoint" />
          </mxGeometry>
        </mxCell>
        <mxCell id="mT2_YZO8V1hmkLwzNB_g-7" value="skos: closeMatch" style="edgeLabel;html=1;align=center;verticalAlign=middle;resizable=0;points=[];" parent="mT2_YZO8V1hmkLwzNB_g-6" vertex="1" connectable="0">
          <mxGeometry x="0.027" y="-1" relative="1" as="geometry">
            <mxPoint x="-2" y="-1" as="offset" />
          </mxGeometry>
        </mxCell>
        <mxCell id="mT2_YZO8V1hmkLwzNB_g-8" value="skos: Concept" style="rounded=0;whiteSpace=wrap;html=1;" parent="1" vertex="1">
          <mxGeometry x="700" y="350" width="120" height="60" as="geometry" />
        </mxCell>
        <mxCell id="mT2_YZO8V1hmkLwzNB_g-10" value="" style="endArrow=classic;html=1;rounded=0;exitX=0.5;exitY=1;exitDx=0;exitDy=0;entryX=0.5;entryY=0;entryDx=0;entryDy=0;" parent="1" source="mT2_YZO8V1hmkLwzNB_g-4" target="mT2_YZO8V1hmkLwzNB_g-12" edge="1">
          <mxGeometry width="50" height="50" relative="1" as="geometry">
            <mxPoint x="390" y="370" as="sourcePoint" />
            <mxPoint x="260" y="420" as="targetPoint" />
          </mxGeometry>
        </mxCell>
        <mxCell id="mT2_YZO8V1hmkLwzNB_g-11" value="inf: J6 holds to be" style="edgeLabel;html=1;align=center;verticalAlign=middle;resizable=0;points=[];" parent="mT2_YZO8V1hmkLwzNB_g-10" vertex="1" connectable="0">
          <mxGeometry x="-0.0073" y="1" relative="1" as="geometry">
            <mxPoint as="offset" />
          </mxGeometry>
        </mxCell>
        <mxCell id="mT2_YZO8V1hmkLwzNB_g-12" value="&lt;div&gt;inf: I6 Belief Value&lt;/div&gt;True" style="rounded=0;whiteSpace=wrap;html=1;" parent="1" vertex="1">
          <mxGeometry x="200" y="380" width="120" height="60" as="geometry" />
        </mxCell>
        <mxCell id="mT2_YZO8V1hmkLwzNB_g-13" value="inf: I1 Argumentation" style="rounded=0;whiteSpace=wrap;html=1;" parent="1" vertex="1">
          <mxGeometry x="200" y="140" width="120" height="60" as="geometry" />
        </mxCell>
        <mxCell id="mT2_YZO8V1hmkLwzNB_g-14" value="" style="endArrow=classic;html=1;rounded=0;exitX=0;exitY=0.5;exitDx=0;exitDy=0;entryX=1;entryY=0.5;entryDx=0;entryDy=0;" parent="1" source="mT2_YZO8V1hmkLwzNB_g-13" target="mT2_YZO8V1hmkLwzNB_g-16" edge="1">
          <mxGeometry width="50" height="50" relative="1" as="geometry">
            <mxPoint x="390" y="370" as="sourcePoint" />
            <mxPoint x="20" y="170" as="targetPoint" />
          </mxGeometry>
        </mxCell>
        <mxCell id="mT2_YZO8V1hmkLwzNB_g-15" value="crm: P14 carried out by" style="edgeLabel;html=1;align=center;verticalAlign=middle;resizable=0;points=[];" parent="mT2_YZO8V1hmkLwzNB_g-14" vertex="1" connectable="0">
          <mxGeometry x="0.0012" y="-2" relative="1" as="geometry">
            <mxPoint as="offset" />
          </mxGeometry>
        </mxCell>
        <mxCell id="mT2_YZO8V1hmkLwzNB_g-16" value="crm: E39 Actor" style="rounded=0;whiteSpace=wrap;html=1;" parent="1" vertex="1">
          <mxGeometry x="-90" y="140" width="120" height="60" as="geometry" />
        </mxCell>
        <mxCell id="A6JZ4Bz5lIlkVIIJ75db-1" value="" style="endArrow=classic;html=1;rounded=0;exitX=0.5;exitY=1;exitDx=0;exitDy=0;entryX=0.5;entryY=0;entryDx=0;entryDy=0;" edge="1" parent="1" source="mT2_YZO8V1hmkLwzNB_g-13" target="mT2_YZO8V1hmkLwzNB_g-4">
          <mxGeometry width="50" height="50" relative="1" as="geometry">
            <mxPoint x="300" y="370" as="sourcePoint" />
            <mxPoint x="350" y="320" as="targetPoint" />
          </mxGeometry>
        </mxCell>
        <mxCell id="A6JZ4Bz5lIlkVIIJ75db-2" value="inf: J2 concluded that" style="edgeLabel;html=1;align=center;verticalAlign=middle;resizable=0;points=[];" vertex="1" connectable="0" parent="A6JZ4Bz5lIlkVIIJ75db-1">
          <mxGeometry x="-0.0379" y="1" relative="1" as="geometry">
            <mxPoint as="offset" />
          </mxGeometry>
        </mxCell>
      </root>
    </mxGraphModel>
  </diagram>
  <diagram id="whNV1Sh5cA0N3vobNEdn" name="bouterwek_eschenburg_schiller_plays">
    <mxGraphModel dx="1147" dy="663" grid="1" gridSize="10" guides="1" tooltips="1" connect="1" arrows="1" fold="1" page="1" pageScale="1" pageWidth="827" pageHeight="1169" math="0" shadow="0">
      <root>
        <mxCell id="0" />
        <mxCell id="1" parent="0" />
        <mxCell id="xdA2Uai1OkRLUGuJ8sn6-1" value="Bouterwek, S. 226, nennt Friedrich Schiller: &quot;Die Braut von Messina&quot; als Beispiel für &quot;Das Trauerspiel&quot;&#xa;* Eschenburg, S. 307 nennt die &quot;Trauerspiele&quot; von Friedrich Schiller als besondere Beispiel für Trauerspiele der Deutschen&quot;" style="text;whiteSpace=wrap;" vertex="1" parent="1">
          <mxGeometry x="280" y="270" width="560" height="80" as="geometry" />
        </mxCell>
        <mxCell id="3XO6YRK4D3xdhhHakyLh-1" value="lrm:F2 Expression&lt;div&gt;Bouterwek [Text]&lt;/div&gt;" style="rounded=0;whiteSpace=wrap;html=1;" vertex="1" parent="1">
          <mxGeometry x="330" y="350" width="120" height="60" as="geometry" />
        </mxCell>
        <mxCell id="3XO6YRK4D3xdhhHakyLh-2" value="lrm:F2 Expression&lt;div&gt;Eschenburg [Text]&lt;/div&gt;" style="rounded=0;whiteSpace=wrap;html=1;" vertex="1" parent="1">
          <mxGeometry x="660" y="350" width="120" height="60" as="geometry" />
        </mxCell>
        <mxCell id="3XO6YRK4D3xdhhHakyLh-3" value="" style="endArrow=classic;html=1;rounded=0;exitX=0.5;exitY=1;exitDx=0;exitDy=0;entryX=0.5;entryY=0;entryDx=0;entryDy=0;" edge="1" parent="1" source="3XO6YRK4D3xdhhHakyLh-1" target="3XO6YRK4D3xdhhHakyLh-4">
          <mxGeometry width="50" height="50" relative="1" as="geometry">
            <mxPoint x="390" y="370" as="sourcePoint" />
            <mxPoint x="140" y="550" as="targetPoint" />
          </mxGeometry>
        </mxCell>
        <mxCell id="3XO6YRK4D3xdhhHakyLh-5" value="crm: P67 refers to" style="edgeLabel;html=1;align=center;verticalAlign=middle;resizable=0;points=[];" vertex="1" connectable="0" parent="3XO6YRK4D3xdhhHakyLh-3">
          <mxGeometry x="-0.0047" y="1" relative="1" as="geometry">
            <mxPoint as="offset" />
          </mxGeometry>
        </mxCell>
        <mxCell id="3XO6YRK4D3xdhhHakyLh-4" value="lrm: F1 Work&lt;div&gt;Schiller: Die Braut von Messina&lt;/div&gt;" style="rounded=0;whiteSpace=wrap;html=1;" vertex="1" parent="1">
          <mxGeometry x="330" y="460" width="120" height="60" as="geometry" />
        </mxCell>
        <mxCell id="3XO6YRK4D3xdhhHakyLh-6" value="" style="endArrow=classic;html=1;rounded=0;exitX=0.5;exitY=1;exitDx=0;exitDy=0;entryX=0.5;entryY=0;entryDx=0;entryDy=0;" edge="1" parent="1" source="3XO6YRK4D3xdhhHakyLh-2" target="3XO6YRK4D3xdhhHakyLh-8">
          <mxGeometry width="50" height="50" relative="1" as="geometry">
            <mxPoint x="390" y="370" as="sourcePoint" />
            <mxPoint x="720" y="510" as="targetPoint" />
          </mxGeometry>
        </mxCell>
        <mxCell id="3XO6YRK4D3xdhhHakyLh-7" value="crm: P67 refers to" style="edgeLabel;html=1;align=center;verticalAlign=middle;resizable=0;points=[];" vertex="1" connectable="0" parent="3XO6YRK4D3xdhhHakyLh-6">
          <mxGeometry x="-0.0066" y="2" relative="1" as="geometry">
            <mxPoint as="offset" />
          </mxGeometry>
        </mxCell>
        <mxCell id="3XO6YRK4D3xdhhHakyLh-8" value="crm: E55 Type&lt;div&gt;&quot;Trauerspiel von Friedrich Schiller&quot;&lt;/div&gt;" style="rounded=0;whiteSpace=wrap;html=1;" vertex="1" parent="1">
          <mxGeometry x="660" y="460" width="120" height="60" as="geometry" />
        </mxCell>
        <mxCell id="3XO6YRK4D3xdhhHakyLh-11" value="" style="endArrow=classic;html=1;rounded=0;exitX=1;exitY=0.5;exitDx=0;exitDy=0;entryX=0;entryY=0.5;entryDx=0;entryDy=0;" edge="1" parent="1" source="3XO6YRK4D3xdhhHakyLh-4" target="3XO6YRK4D3xdhhHakyLh-8">
          <mxGeometry width="50" height="50" relative="1" as="geometry">
            <mxPoint x="390" y="370" as="sourcePoint" />
            <mxPoint x="440" y="320" as="targetPoint" />
          </mxGeometry>
        </mxCell>
        <mxCell id="3XO6YRK4D3xdhhHakyLh-12" value="crm: P2 has type" style="edgeLabel;html=1;align=center;verticalAlign=middle;resizable=0;points=[];" vertex="1" connectable="0" parent="3XO6YRK4D3xdhhHakyLh-11">
          <mxGeometry x="-0.0005" y="-1" relative="1" as="geometry">
            <mxPoint as="offset" />
          </mxGeometry>
        </mxCell>
      </root>
    </mxGraphModel>
  </diagram>
  <diagram name="Kopie von bouterwek_eschenburg_schiller_plays" id="-0qPGs5GqhvJdp3Qj9t6">
    <mxGraphModel dx="1147" dy="663" grid="1" gridSize="10" guides="1" tooltips="1" connect="1" arrows="1" fold="1" page="1" pageScale="1" pageWidth="827" pageHeight="1169" math="0" shadow="0">
      <root>
        <mxCell id="xTUOBJwBnCUJtNb8INcO-0" />
        <mxCell id="xTUOBJwBnCUJtNb8INcO-1" parent="xTUOBJwBnCUJtNb8INcO-0" />
        <mxCell id="k2sEBvvNAzSVbrTlLTQ2-29" value="" style="rounded=0;whiteSpace=wrap;html=1;" vertex="1" parent="xTUOBJwBnCUJtNb8INcO-1">
          <mxGeometry x="570" y="635" width="410" height="150" as="geometry" />
        </mxCell>
        <mxCell id="H-ZtwyxDJ9td1b1ak2t0-0" value="inf: I2 Belief" style="rounded=0;whiteSpace=wrap;html=1;" vertex="1" parent="xTUOBJwBnCUJtNb8INcO-1">
          <mxGeometry x="715" y="420" width="120" height="60" as="geometry" />
        </mxCell>
        <mxCell id="k2sEBvvNAzSVbrTlLTQ2-12" value="inf: I1 Argumentation" style="rounded=0;whiteSpace=wrap;html=1;" vertex="1" parent="xTUOBJwBnCUJtNb8INcO-1">
          <mxGeometry x="450" y="420" width="120" height="60" as="geometry" />
        </mxCell>
        <mxCell id="k2sEBvvNAzSVbrTlLTQ2-13" value="" style="endArrow=classic;html=1;rounded=0;exitX=0.5;exitY=0;exitDx=0;exitDy=0;entryX=0.5;entryY=1;entryDx=0;entryDy=0;" edge="1" parent="xTUOBJwBnCUJtNb8INcO-1" source="k2sEBvvNAzSVbrTlLTQ2-12" target="k2sEBvvNAzSVbrTlLTQ2-18">
          <mxGeometry width="50" height="50" relative="1" as="geometry">
            <mxPoint x="480" y="1110" as="sourcePoint" />
            <mxPoint x="110" y="910" as="targetPoint" />
          </mxGeometry>
        </mxCell>
        <mxCell id="k2sEBvvNAzSVbrTlLTQ2-14" value="crm: P14 carried out by" style="edgeLabel;html=1;align=center;verticalAlign=middle;resizable=0;points=[];" vertex="1" connectable="0" parent="k2sEBvvNAzSVbrTlLTQ2-13">
          <mxGeometry x="0.0012" y="-2" relative="1" as="geometry">
            <mxPoint as="offset" />
          </mxGeometry>
        </mxCell>
        <mxCell id="k2sEBvvNAzSVbrTlLTQ2-16" value="" style="endArrow=classic;html=1;rounded=0;exitX=1;exitY=0.5;exitDx=0;exitDy=0;entryX=0;entryY=0.5;entryDx=0;entryDy=0;" edge="1" parent="xTUOBJwBnCUJtNb8INcO-1" source="k2sEBvvNAzSVbrTlLTQ2-12" target="H-ZtwyxDJ9td1b1ak2t0-0">
          <mxGeometry width="50" height="50" relative="1" as="geometry">
            <mxPoint x="390" y="1110" as="sourcePoint" />
            <mxPoint x="440" y="1060" as="targetPoint" />
          </mxGeometry>
        </mxCell>
        <mxCell id="k2sEBvvNAzSVbrTlLTQ2-17" value="inf: J2 concluded that" style="edgeLabel;html=1;align=center;verticalAlign=middle;resizable=0;points=[];" vertex="1" connectable="0" parent="k2sEBvvNAzSVbrTlLTQ2-16">
          <mxGeometry x="-0.0379" y="1" relative="1" as="geometry">
            <mxPoint as="offset" />
          </mxGeometry>
        </mxCell>
        <mxCell id="k2sEBvvNAzSVbrTlLTQ2-18" value="crm: E39 Actor&lt;div&gt;Bouterwek&lt;/div&gt;" style="rounded=0;whiteSpace=wrap;html=1;" vertex="1" parent="xTUOBJwBnCUJtNb8INcO-1">
          <mxGeometry x="450" y="300" width="120" height="60" as="geometry" />
        </mxCell>
        <mxCell id="k2sEBvvNAzSVbrTlLTQ2-19" value="" style="endArrow=classic;html=1;rounded=0;exitX=0.5;exitY=1;exitDx=0;exitDy=0;entryX=0.5;entryY=0;entryDx=0;entryDy=0;" edge="1" parent="xTUOBJwBnCUJtNb8INcO-1" source="H-ZtwyxDJ9td1b1ak2t0-0" target="k2sEBvvNAzSVbrTlLTQ2-31">
          <mxGeometry width="50" height="50" relative="1" as="geometry">
            <mxPoint x="450" y="680" as="sourcePoint" />
            <mxPoint x="560" y="712.5" as="targetPoint" />
          </mxGeometry>
        </mxCell>
        <mxCell id="k2sEBvvNAzSVbrTlLTQ2-20" value="inf: J4 that" style="edgeLabel;html=1;align=center;verticalAlign=middle;resizable=0;points=[];" vertex="1" connectable="0" parent="k2sEBvvNAzSVbrTlLTQ2-19">
          <mxGeometry x="0.0193" y="-1" relative="1" as="geometry">
            <mxPoint y="-1" as="offset" />
          </mxGeometry>
        </mxCell>
        <mxCell id="k2sEBvvNAzSVbrTlLTQ2-22" value="lrm: F1 Work&lt;div&gt;Schiller: Die Braut von Messina&lt;/div&gt;" style="rounded=0;whiteSpace=wrap;html=1;" vertex="1" parent="xTUOBJwBnCUJtNb8INcO-1">
          <mxGeometry x="590" y="680" width="120" height="60" as="geometry" />
        </mxCell>
        <mxCell id="k2sEBvvNAzSVbrTlLTQ2-26" value="" style="endArrow=classic;html=1;rounded=0;exitX=1;exitY=0.5;exitDx=0;exitDy=0;entryX=0;entryY=0.5;entryDx=0;entryDy=0;" edge="1" parent="xTUOBJwBnCUJtNb8INcO-1" source="k2sEBvvNAzSVbrTlLTQ2-22" target="k2sEBvvNAzSVbrTlLTQ2-28">
          <mxGeometry width="50" height="50" relative="1" as="geometry">
            <mxPoint x="550" y="740" as="sourcePoint" />
            <mxPoint x="890" y="670" as="targetPoint" />
          </mxGeometry>
        </mxCell>
        <mxCell id="k2sEBvvNAzSVbrTlLTQ2-27" value="crm: P2 has type" style="edgeLabel;html=1;align=center;verticalAlign=middle;resizable=0;points=[];" vertex="1" connectable="0" parent="k2sEBvvNAzSVbrTlLTQ2-26">
          <mxGeometry x="0.0157" y="2" relative="1" as="geometry">
            <mxPoint x="-1" as="offset" />
          </mxGeometry>
        </mxCell>
        <mxCell id="k2sEBvvNAzSVbrTlLTQ2-28" value="crm: E55 Type&lt;div&gt;Trauerspiel&lt;/div&gt;" style="rounded=0;whiteSpace=wrap;html=1;" vertex="1" parent="xTUOBJwBnCUJtNb8INcO-1">
          <mxGeometry x="840" y="680" width="120" height="60" as="geometry" />
        </mxCell>
        <mxCell id="k2sEBvvNAzSVbrTlLTQ2-30" value="&lt;span style=&quot;color: rgb(0, 0, 0); font-family: Helvetica; font-size: 12px; font-style: normal; font-variant-ligatures: normal; font-variant-caps: normal; font-weight: 400; letter-spacing: normal; orphans: 2; text-align: left; text-indent: 0px; text-transform: none; widows: 2; word-spacing: 0px; -webkit-text-stroke-width: 0px; white-space: normal; background-color: rgb(251, 251, 251); text-decoration-thickness: initial; text-decoration-style: initial; text-decoration-color: initial; display: inline !important; float: none;&quot;&gt;Bouterwek, S. 226, nennt Friedrich Schiller: &quot;Die Braut von Messina&quot; als Beispiel für &quot;Das Trauerspiel&quot;&lt;/span&gt;&lt;br style=&quot;forced-color-adjust: none; padding: 0px; margin: 0px; color: rgb(0, 0, 0); font-family: Helvetica; font-size: 12px; font-style: normal; font-variant-ligatures: normal; font-variant-caps: normal; font-weight: 400; letter-spacing: normal; orphans: 2; text-align: left; text-indent: 0px; text-transform: none; widows: 2; word-spacing: 0px; -webkit-text-stroke-width: 0px; white-space: normal; background-color: rgb(251, 251, 251); text-decoration-thickness: initial; text-decoration-style: initial; text-decoration-color: initial;&quot;&gt;" style="text;whiteSpace=wrap;html=1;" vertex="1" parent="xTUOBJwBnCUJtNb8INcO-1">
          <mxGeometry x="570" y="790" width="410" height="50" as="geometry" />
        </mxCell>
        <mxCell id="k2sEBvvNAzSVbrTlLTQ2-31" value="inf: I4 Proposition Set" style="text;html=1;align=center;verticalAlign=middle;whiteSpace=wrap;rounded=0;" vertex="1" parent="xTUOBJwBnCUJtNb8INcO-1">
          <mxGeometry x="690" y="635" width="170" height="30" as="geometry" />
        </mxCell>
        <UserObject label="https://dracor.org/id/ger000067" id="k2sEBvvNAzSVbrTlLTQ2-33">
          <mxCell style="text;whiteSpace=wrap;" vertex="1" parent="xTUOBJwBnCUJtNb8INcO-1">
            <mxGeometry x="580" y="750" width="170" height="40" as="geometry" />
          </mxCell>
        </UserObject>
        <mxCell id="o7Oub_Jpmks4FG3U8UxQ-0" value="crm: E28 Conceptual Object&lt;div&gt;&quot;Äsopische Fabel&quot; as understood by B.&lt;/div&gt;" style="rounded=0;whiteSpace=wrap;html=1;" vertex="1" parent="xTUOBJwBnCUJtNb8INcO-1">
          <mxGeometry x="835" y="180" width="120" height="60" as="geometry" />
        </mxCell>
        <mxCell id="o7Oub_Jpmks4FG3U8UxQ-2" value="" style="endArrow=classic;startArrow=classic;html=1;rounded=0;exitX=0.5;exitY=0;exitDx=0;exitDy=0;entryX=0.5;entryY=1;entryDx=0;entryDy=0;" edge="1" parent="xTUOBJwBnCUJtNb8INcO-1" source="k2sEBvvNAzSVbrTlLTQ2-28" target="o7Oub_Jpmks4FG3U8UxQ-0">
          <mxGeometry width="50" height="50" relative="1" as="geometry">
            <mxPoint x="520" y="570" as="sourcePoint" />
            <mxPoint x="570" y="520" as="targetPoint" />
          </mxGeometry>
        </mxCell>
        <mxCell id="o7Oub_Jpmks4FG3U8UxQ-3" value="owl: sameAs" style="edgeLabel;html=1;align=center;verticalAlign=middle;resizable=0;points=[];" vertex="1" connectable="0" parent="o7Oub_Jpmks4FG3U8UxQ-2">
          <mxGeometry x="0.274" relative="1" as="geometry">
            <mxPoint as="offset" />
          </mxGeometry>
        </mxCell>
        <mxCell id="o7Oub_Jpmks4FG3U8UxQ-4" value="" style="endArrow=classic;html=1;rounded=0;exitX=0;exitY=1;exitDx=0;exitDy=0;entryX=0.5;entryY=0;entryDx=0;entryDy=0;" edge="1" parent="xTUOBJwBnCUJtNb8INcO-1" source="H-ZtwyxDJ9td1b1ak2t0-0" target="o7Oub_Jpmks4FG3U8UxQ-6">
          <mxGeometry width="50" height="50" relative="1" as="geometry">
            <mxPoint x="630" y="420" as="sourcePoint" />
            <mxPoint x="640" y="550" as="targetPoint" />
          </mxGeometry>
        </mxCell>
        <mxCell id="o7Oub_Jpmks4FG3U8UxQ-5" value="inf: J5 holds to be" style="edgeLabel;html=1;align=center;verticalAlign=middle;resizable=0;points=[];" vertex="1" connectable="0" parent="o7Oub_Jpmks4FG3U8UxQ-4">
          <mxGeometry x="-0.0263" y="2" relative="1" as="geometry">
            <mxPoint as="offset" />
          </mxGeometry>
        </mxCell>
        <mxCell id="o7Oub_Jpmks4FG3U8UxQ-6" value="inf: I6 Belief Value&lt;div&gt;True&lt;/div&gt;" style="rounded=0;whiteSpace=wrap;html=1;" vertex="1" parent="xTUOBJwBnCUJtNb8INcO-1">
          <mxGeometry x="570" y="555" width="120" height="60" as="geometry" />
        </mxCell>
      </root>
    </mxGraphModel>
  </diagram>
  <diagram id="Kspfgo61hMCEvX7QxvWg" name="Seite-11">
    <mxGraphModel dx="2101" dy="737" grid="1" gridSize="10" guides="1" tooltips="1" connect="1" arrows="1" fold="1" page="1" pageScale="1" pageWidth="827" pageHeight="1169" math="0" shadow="0">
      <root>
        <mxCell id="0" />
        <mxCell id="1" parent="0" />
        <mxCell id="AYH4qYin2Te2zIdWpS7k-4" value="..." style="rounded=0;whiteSpace=wrap;html=1;dashed=1;" vertex="1" parent="1">
          <mxGeometry x="600" y="460" width="120" height="60" as="geometry" />
        </mxCell>
        <mxCell id="nVCQcQ9Amrjk1hTtr8Xg-1" value="lrm: F1 Work&lt;div&gt;Schiller: Die Braut von Messina&lt;/div&gt;" style="rounded=0;whiteSpace=wrap;html=1;" vertex="1" parent="1">
          <mxGeometry x="110" y="310" width="120" height="60" as="geometry" />
        </mxCell>
        <UserObject label="https://dracor.org/entity/ger000067" id="nVCQcQ9Amrjk1hTtr8Xg-2">
          <mxCell style="text;whiteSpace=wrap;" vertex="1" parent="1">
            <mxGeometry x="240" y="310" width="170" height="40" as="geometry" />
          </mxCell>
        </UserObject>
        <mxCell id="nVCQcQ9Amrjk1hTtr8Xg-3" value="crm: E39 Actor&lt;div&gt;Friedrich Schiller&lt;/div&gt;" style="rounded=0;whiteSpace=wrap;html=1;" vertex="1" parent="1">
          <mxGeometry x="110" y="90" width="120" height="60" as="geometry" />
        </mxCell>
        <mxCell id="nVCQcQ9Amrjk1hTtr8Xg-4" value="lrm: F27 Work Creation" style="rounded=0;whiteSpace=wrap;html=1;" vertex="1" parent="1">
          <mxGeometry x="110" y="200" width="120" height="60" as="geometry" />
        </mxCell>
        <mxCell id="nVCQcQ9Amrjk1hTtr8Xg-5" value="" style="endArrow=classic;html=1;rounded=0;exitX=0.5;exitY=0;exitDx=0;exitDy=0;entryX=0.5;entryY=1;entryDx=0;entryDy=0;" edge="1" parent="1" source="nVCQcQ9Amrjk1hTtr8Xg-4" target="nVCQcQ9Amrjk1hTtr8Xg-3">
          <mxGeometry width="50" height="50" relative="1" as="geometry">
            <mxPoint x="390" y="420" as="sourcePoint" />
            <mxPoint x="310" y="240" as="targetPoint" />
          </mxGeometry>
        </mxCell>
        <mxCell id="nVCQcQ9Amrjk1hTtr8Xg-6" value="crm: P14 carried out by" style="edgeLabel;html=1;align=center;verticalAlign=middle;resizable=0;points=[];" vertex="1" connectable="0" parent="nVCQcQ9Amrjk1hTtr8Xg-5">
          <mxGeometry x="0.0206" y="1" relative="1" as="geometry">
            <mxPoint as="offset" />
          </mxGeometry>
        </mxCell>
        <UserObject label="http://www.wikidata.org/entity/Q22670" link="https://www.wikidata.org/entity/Q22670" id="nVCQcQ9Amrjk1hTtr8Xg-7">
          <mxCell style="text;whiteSpace=wrap;" vertex="1" parent="1">
            <mxGeometry x="240" y="90" width="240" height="40" as="geometry" />
          </mxCell>
        </UserObject>
        <mxCell id="nVCQcQ9Amrjk1hTtr8Xg-8" value="" style="endArrow=classic;html=1;rounded=0;exitX=0.5;exitY=1;exitDx=0;exitDy=0;entryX=0.5;entryY=0;entryDx=0;entryDy=0;" edge="1" parent="1" source="nVCQcQ9Amrjk1hTtr8Xg-4" target="nVCQcQ9Amrjk1hTtr8Xg-1">
          <mxGeometry width="50" height="50" relative="1" as="geometry">
            <mxPoint x="390" y="420" as="sourcePoint" />
            <mxPoint x="440" y="370" as="targetPoint" />
          </mxGeometry>
        </mxCell>
        <mxCell id="nVCQcQ9Amrjk1hTtr8Xg-9" value="lrm: R16 created" style="edgeLabel;html=1;align=center;verticalAlign=middle;resizable=0;points=[];" vertex="1" connectable="0" parent="nVCQcQ9Amrjk1hTtr8Xg-8">
          <mxGeometry x="-0.0221" y="2" relative="1" as="geometry">
            <mxPoint as="offset" />
          </mxGeometry>
        </mxCell>
        <mxCell id="nVCQcQ9Amrjk1hTtr8Xg-10" value="crm: E13 Attribute Assignment" style="rounded=0;whiteSpace=wrap;html=1;" vertex="1" parent="1">
          <mxGeometry x="320" y="410" width="120" height="60" as="geometry" />
        </mxCell>
        <mxCell id="M_S9mFaQh3pkLrufSJAj-1" value="crm: E39 Actor&lt;div&gt;Friedrich Bouterwek&lt;/div&gt;" style="rounded=0;whiteSpace=wrap;html=1;" vertex="1" parent="1">
          <mxGeometry x="320" y="525" width="120" height="60" as="geometry" />
        </mxCell>
        <mxCell id="M_S9mFaQh3pkLrufSJAj-2" value="" style="endArrow=classic;html=1;rounded=0;exitX=0.5;exitY=1;exitDx=0;exitDy=0;" edge="1" parent="1" source="nVCQcQ9Amrjk1hTtr8Xg-10" target="M_S9mFaQh3pkLrufSJAj-1">
          <mxGeometry width="50" height="50" relative="1" as="geometry">
            <mxPoint x="390" y="430" as="sourcePoint" />
            <mxPoint x="440" y="380" as="targetPoint" />
          </mxGeometry>
        </mxCell>
        <mxCell id="M_S9mFaQh3pkLrufSJAj-3" value="crm: P14 carried out by" style="edgeLabel;html=1;align=center;verticalAlign=middle;resizable=0;points=[];" vertex="1" connectable="0" parent="M_S9mFaQh3pkLrufSJAj-2">
          <mxGeometry x="-0.0153" y="1" relative="1" as="geometry">
            <mxPoint as="offset" />
          </mxGeometry>
        </mxCell>
        <mxCell id="V8Y_QyqmGd8KEkT3-f25-1" value="&lt;div&gt;crm: E55 Type &quot;Trauerspiel&quot; as understood by B.&lt;/div&gt;" style="rounded=0;whiteSpace=wrap;html=1;" vertex="1" parent="1">
          <mxGeometry x="590" y="90" width="120" height="60" as="geometry" />
        </mxCell>
        <mxCell id="V8Y_QyqmGd8KEkT3-f25-2" value="" style="endArrow=classic;html=1;rounded=0;exitX=0;exitY=0.5;exitDx=0;exitDy=0;entryX=1;entryY=0.5;entryDx=0;entryDy=0;" edge="1" parent="1" source="nVCQcQ9Amrjk1hTtr8Xg-10" target="nVCQcQ9Amrjk1hTtr8Xg-1">
          <mxGeometry width="50" height="50" relative="1" as="geometry">
            <mxPoint x="390" y="320" as="sourcePoint" />
            <mxPoint x="440" y="270" as="targetPoint" />
          </mxGeometry>
        </mxCell>
        <mxCell id="rngui4X25mP2HLOyR6ti-1" value="crm: P140 assigned attribute to" style="edgeLabel;html=1;align=center;verticalAlign=middle;resizable=0;points=[];" vertex="1" connectable="0" parent="V8Y_QyqmGd8KEkT3-f25-2">
          <mxGeometry x="-0.0025" y="-1" relative="1" as="geometry">
            <mxPoint x="9" y="11" as="offset" />
          </mxGeometry>
        </mxCell>
        <mxCell id="V8Y_QyqmGd8KEkT3-f25-3" value="" style="endArrow=classic;html=1;rounded=0;exitX=1;exitY=0.5;exitDx=0;exitDy=0;entryX=0;entryY=0.5;entryDx=0;entryDy=0;" edge="1" parent="1" source="nVCQcQ9Amrjk1hTtr8Xg-10" target="V8Y_QyqmGd8KEkT3-f25-1">
          <mxGeometry width="50" height="50" relative="1" as="geometry">
            <mxPoint x="390" y="320" as="sourcePoint" />
            <mxPoint x="440" y="270" as="targetPoint" />
          </mxGeometry>
        </mxCell>
        <mxCell id="dIQTHryuj8wUlMk5dMl5-1" value="crm: P141 assigned" style="edgeLabel;html=1;align=center;verticalAlign=middle;resizable=0;points=[];" vertex="1" connectable="0" parent="V8Y_QyqmGd8KEkT3-f25-3">
          <mxGeometry x="-0.0201" relative="1" as="geometry">
            <mxPoint as="offset" />
          </mxGeometry>
        </mxCell>
        <mxCell id="d8sNazWmWzn5kZKK7HEg-1" value="&lt;span style=&quot;color: rgb(0, 0, 0); font-family: Helvetica; font-size: 12px; font-style: normal; font-variant-ligatures: normal; font-variant-caps: normal; font-weight: 400; letter-spacing: normal; orphans: 2; text-align: left; text-indent: 0px; text-transform: none; widows: 2; word-spacing: 0px; -webkit-text-stroke-width: 0px; white-space: normal; background-color: rgb(251, 251, 251); text-decoration-thickness: initial; text-decoration-style: initial; text-decoration-color: initial; display: inline !important; float: none;&quot;&gt;Bouterwek, S. 226, nennt Friedrich Schiller: &quot;Die Braut von Messina&quot; als Beispiel für &quot;Das Trauerspiel&quot;&lt;/span&gt;&lt;br style=&quot;forced-color-adjust: none; padding: 0px; margin: 0px; color: rgb(0, 0, 0); font-family: Helvetica; font-size: 12px; font-style: normal; font-variant-ligatures: normal; font-variant-caps: normal; font-weight: 400; letter-spacing: normal; orphans: 2; text-align: left; text-indent: 0px; text-transform: none; widows: 2; word-spacing: 0px; -webkit-text-stroke-width: 0px; white-space: normal; background-color: rgb(251, 251, 251); text-decoration-thickness: initial; text-decoration-style: initial; text-decoration-color: initial;&quot;&gt;" style="text;whiteSpace=wrap;html=1;" vertex="1" parent="1">
          <mxGeometry x="270" y="600" width="250" height="50" as="geometry" />
        </mxCell>
        <mxCell id="AYH4qYin2Te2zIdWpS7k-1" value="" style="endArrow=classic;html=1;rounded=0;entryX=0.5;entryY=1;entryDx=0;entryDy=0;exitX=0.5;exitY=0;exitDx=0;exitDy=0;dashed=1;" edge="1" parent="1" source="AYH4qYin2Te2zIdWpS7k-2" target="V8Y_QyqmGd8KEkT3-f25-1">
          <mxGeometry width="50" height="50" relative="1" as="geometry">
            <mxPoint x="690" y="490" as="sourcePoint" />
            <mxPoint x="760" y="380" as="targetPoint" />
          </mxGeometry>
        </mxCell>
        <mxCell id="AYH4qYin2Te2zIdWpS7k-2" value="..." style="rounded=0;whiteSpace=wrap;html=1;dashed=1;" vertex="1" parent="1">
          <mxGeometry x="590" y="470" width="120" height="60" as="geometry" />
        </mxCell>
        <mxCell id="AYH4qYin2Te2zIdWpS7k-3" value="" style="endArrow=classic;html=1;rounded=0;exitX=1;exitY=0.5;exitDx=0;exitDy=0;entryX=0;entryY=0.5;entryDx=0;entryDy=0;dashed=1;" edge="1" parent="1" source="M_S9mFaQh3pkLrufSJAj-1" target="AYH4qYin2Te2zIdWpS7k-2">
          <mxGeometry width="50" height="50" relative="1" as="geometry">
            <mxPoint x="710" y="430" as="sourcePoint" />
            <mxPoint x="760" y="380" as="targetPoint" />
          </mxGeometry>
        </mxCell>
        <mxCell id="AYH4qYin2Te2zIdWpS7k-12" value="crm: E55 Type&lt;div&gt;Trauerspiel der Deutschen&lt;/div&gt;" style="rounded=0;whiteSpace=wrap;html=1;" vertex="1" parent="1">
          <mxGeometry x="-330" y="190" width="120" height="60" as="geometry" />
        </mxCell>
        <mxCell id="imVmSVTBNRLxORgLsNC0-2" value="crm: E55 Type&lt;div&gt;Trauerspiel von Friedrich Schiller&lt;/div&gt;" style="rounded=0;whiteSpace=wrap;html=1;" vertex="1" parent="1">
          <mxGeometry x="-330" y="310" width="120" height="60" as="geometry" />
        </mxCell>
        <mxCell id="imVmSVTBNRLxORgLsNC0-3" value="" style="endArrow=classic;html=1;rounded=0;exitX=0.5;exitY=0;exitDx=0;exitDy=0;entryX=0.5;entryY=1;entryDx=0;entryDy=0;" edge="1" parent="1" source="imVmSVTBNRLxORgLsNC0-2" target="AYH4qYin2Te2zIdWpS7k-12">
          <mxGeometry width="50" height="50" relative="1" as="geometry">
            <mxPoint x="-20" y="380" as="sourcePoint" />
            <mxPoint x="30" y="330" as="targetPoint" />
          </mxGeometry>
        </mxCell>
        <mxCell id="imVmSVTBNRLxORgLsNC0-4" value="crm: P127 has broader term" style="edgeLabel;html=1;align=center;verticalAlign=middle;resizable=0;points=[];" vertex="1" connectable="0" parent="imVmSVTBNRLxORgLsNC0-3">
          <mxGeometry x="0.0258" relative="1" as="geometry">
            <mxPoint as="offset" />
          </mxGeometry>
        </mxCell>
        <mxCell id="imVmSVTBNRLxORgLsNC0-5" value="" style="endArrow=classic;html=1;rounded=0;exitX=0.5;exitY=0;exitDx=0;exitDy=0;entryX=0.5;entryY=1;entryDx=0;entryDy=0;" edge="1" parent="1" source="AYH4qYin2Te2zIdWpS7k-12" target="WFSazuLNyig-f94CfCiH-1">
          <mxGeometry width="50" height="50" relative="1" as="geometry">
            <mxPoint x="-20" y="380" as="sourcePoint" />
            <mxPoint x="-110" y="120" as="targetPoint" />
          </mxGeometry>
        </mxCell>
        <mxCell id="imVmSVTBNRLxORgLsNC0-6" value="crm: P127 has broader term" style="edgeLabel;html=1;align=center;verticalAlign=middle;resizable=0;points=[];" vertex="1" connectable="0" parent="imVmSVTBNRLxORgLsNC0-5">
          <mxGeometry x="-0.0017" relative="1" as="geometry">
            <mxPoint as="offset" />
          </mxGeometry>
        </mxCell>
        <mxCell id="WFSazuLNyig-f94CfCiH-1" value="crm: E55 Type&lt;div&gt;&quot;Trauerspiel&quot; as understood by E.&lt;/div&gt;" style="rounded=0;whiteSpace=wrap;html=1;" vertex="1" parent="1">
          <mxGeometry x="-330" y="80" width="120" height="60" as="geometry" />
        </mxCell>
        <mxCell id="WFSazuLNyig-f94CfCiH-2" value="crm: E13 Attribute Assignment" style="rounded=0;whiteSpace=wrap;html=1;" vertex="1" parent="1">
          <mxGeometry x="-120" y="410" width="120" height="60" as="geometry" />
        </mxCell>
        <mxCell id="WFSazuLNyig-f94CfCiH-3" value="crm: E39 Actor&lt;div&gt;Johann Joachim Eschenbug&lt;/div&gt;" style="rounded=0;whiteSpace=wrap;html=1;" vertex="1" parent="1">
          <mxGeometry x="-120" y="525" width="120" height="60" as="geometry" />
        </mxCell>
        <mxCell id="WFSazuLNyig-f94CfCiH-4" value="" style="endArrow=classic;html=1;rounded=0;exitX=0.5;exitY=1;exitDx=0;exitDy=0;" edge="1" parent="1" source="WFSazuLNyig-f94CfCiH-2" target="WFSazuLNyig-f94CfCiH-3">
          <mxGeometry width="50" height="50" relative="1" as="geometry">
            <mxPoint x="-80" y="430" as="sourcePoint" />
            <mxPoint x="-30" y="380" as="targetPoint" />
          </mxGeometry>
        </mxCell>
        <mxCell id="WFSazuLNyig-f94CfCiH-5" value="crm: P14 carried out by" style="edgeLabel;html=1;align=center;verticalAlign=middle;resizable=0;points=[];" vertex="1" connectable="0" parent="WFSazuLNyig-f94CfCiH-4">
          <mxGeometry x="-0.0153" y="1" relative="1" as="geometry">
            <mxPoint as="offset" />
          </mxGeometry>
        </mxCell>
        <mxCell id="WFSazuLNyig-f94CfCiH-6" value="" style="endArrow=classic;html=1;rounded=0;exitX=1;exitY=0.5;exitDx=0;exitDy=0;entryX=0;entryY=0.5;entryDx=0;entryDy=0;" edge="1" parent="1" source="WFSazuLNyig-f94CfCiH-2" target="nVCQcQ9Amrjk1hTtr8Xg-1">
          <mxGeometry width="50" height="50" relative="1" as="geometry">
            <mxPoint x="80" y="410" as="sourcePoint" />
            <mxPoint x="130" y="360" as="targetPoint" />
          </mxGeometry>
        </mxCell>
        <mxCell id="WFSazuLNyig-f94CfCiH-7" value="crm: P140 assigned attribute to" style="edgeLabel;html=1;align=center;verticalAlign=middle;resizable=0;points=[];" vertex="1" connectable="0" parent="WFSazuLNyig-f94CfCiH-6">
          <mxGeometry x="-0.3677" relative="1" as="geometry">
            <mxPoint x="12" y="-8" as="offset" />
          </mxGeometry>
        </mxCell>
        <mxCell id="WFSazuLNyig-f94CfCiH-8" value="" style="endArrow=classic;html=1;rounded=0;exitX=0;exitY=0.5;exitDx=0;exitDy=0;entryX=1;entryY=0.5;entryDx=0;entryDy=0;" edge="1" parent="1" source="WFSazuLNyig-f94CfCiH-2" target="imVmSVTBNRLxORgLsNC0-2">
          <mxGeometry width="50" height="50" relative="1" as="geometry">
            <mxPoint x="100" y="310" as="sourcePoint" />
            <mxPoint x="150" y="260" as="targetPoint" />
          </mxGeometry>
        </mxCell>
        <mxCell id="WFSazuLNyig-f94CfCiH-9" value="crm: P141 assigned" style="edgeLabel;html=1;align=center;verticalAlign=middle;resizable=0;points=[];" vertex="1" connectable="0" parent="WFSazuLNyig-f94CfCiH-8">
          <mxGeometry x="-0.0079" y="-3" relative="1" as="geometry">
            <mxPoint as="offset" />
          </mxGeometry>
        </mxCell>
        <mxCell id="WFSazuLNyig-f94CfCiH-10" value="..." style="rounded=0;whiteSpace=wrap;html=1;dashed=1;" vertex="1" parent="1">
          <mxGeometry x="-470" y="460" width="120" height="60" as="geometry" />
        </mxCell>
        <mxCell id="WFSazuLNyig-f94CfCiH-11" value="" style="endArrow=classic;html=1;rounded=0;exitX=0.5;exitY=0;exitDx=0;exitDy=0;dashed=1;entryX=0;entryY=0.5;entryDx=0;entryDy=0;" edge="1" parent="1" source="WFSazuLNyig-f94CfCiH-12" target="WFSazuLNyig-f94CfCiH-1">
          <mxGeometry width="50" height="50" relative="1" as="geometry">
            <mxPoint x="-420" y="490" as="sourcePoint" />
            <mxPoint x="-420" y="130" as="targetPoint" />
            <Array as="points">
              <mxPoint x="-420" y="110" />
            </Array>
          </mxGeometry>
        </mxCell>
        <mxCell id="WFSazuLNyig-f94CfCiH-12" value="..." style="rounded=0;whiteSpace=wrap;html=1;dashed=1;" vertex="1" parent="1">
          <mxGeometry x="-480" y="470" width="120" height="60" as="geometry" />
        </mxCell>
        <mxCell id="WFSazuLNyig-f94CfCiH-13" value="" style="endArrow=classic;html=1;rounded=0;exitX=0;exitY=0.5;exitDx=0;exitDy=0;entryX=1;entryY=0.5;entryDx=0;entryDy=0;dashed=1;" edge="1" parent="1" target="WFSazuLNyig-f94CfCiH-12" source="WFSazuLNyig-f94CfCiH-3">
          <mxGeometry width="50" height="50" relative="1" as="geometry">
            <mxPoint x="-620" y="555" as="sourcePoint" />
            <mxPoint x="-350" y="380" as="targetPoint" />
          </mxGeometry>
        </mxCell>
        <mxCell id="WFSazuLNyig-f94CfCiH-16" value="Eschenburg, S. 307 nennt die &quot;Trauerspiele&quot; von Friedrich Schiller als besondere Beispiel für Trauerspiele der Deutschen&quot;" style="text;whiteSpace=wrap;" vertex="1" parent="1">
          <mxGeometry x="-170" y="600" width="270" height="50" as="geometry" />
        </mxCell>
      </root>
    </mxGraphModel>
  </diagram>
</mxfile>
